<svg width="200" height="300" viewBox="0 0 200 300" fill="none" xmlns="http://www.w3.org/2000/svg">
<g clip-path="url(#clip0_4_2)">
<rect width="200" height="300" fill="white"/>
<line x1="342.045" y1="212.87" x2="-160.412" y2="-518.717" stroke="#CDCDCD"/>
<line x1="342.045" y1="221.87" x2="-160.412" y2="-509.717" stroke="#CDCDCD"/>
<line x1="342.045" y1="230.87" x2="-160.412" y2="-500.717" stroke="#CDCDCD"/>
<line x1="342.045" y1="239.87" x2="-160.412" y2="-491.717" stroke="#CDCDCD"/>
<line x1="342.045" y1="248.87" x2="-160.412" y2="-482.717" stroke="#CDCDCD"/>
<line x1="342.045" y1="257.87" x2="-160.412" y2="-473.717" stroke="#CDCDCD"/>
<line x1="342.045" y1="266.87" x2="-160.412" y2="-464.717" stroke="#CDCDCD"/>
<line x1="342.045" y1="275.87" x2="-160.412" y2="-455.717" stroke="#CDCDCD"/>
<line x1="342.045" y1="284.87" x2="-160.412" y2="-446.717" stroke="#CDCDCD"/>
<line x1="342.045" y1="293.87" x2="-160.412" y2="-437.717" stroke="#CDCDCD"/>
<line x1="342.045" y1="302.87" x2="-160.412" y2="-428.717" stroke="#CDCDCD"/>
<line x1="342.045" y1="311.87" x2="-160.412" y2="-419.717" stroke="#CDCDCD"/>
<line x1="342.045" y1="320.87" x2="-160.412" y2="-410.717" stroke="#CDCDCD"/>
<line x1="342.045" y1="329.87" x2="-160.412" y2="-401.717" stroke="#CDCDCD"/>
<line x1="342.045" y1="338.87" x2="-160.412" y2="-392.717" stroke="#CDCDCD"/>
<line x1="342.045" y1="347.87" x2="-160.412" y2="-383.717" stroke="#CDCDCD"/>
<line x1="342.045" y1="356.87" x2="-160.412" y2="-374.717" stroke="#CDCDCD"/>
<line x1="342.045" y1="365.87" x2="-160.412" y2="-365.717" stroke="#CDCDCD"/>
<line x1="342.045" y1="374.87" x2="-160.412" y2="-356.717" stroke="#CDCDCD"/>
<line x1="342.045" y1="383.87" x2="-160.412" y2="-347.717" stroke="#CDCDCD"/>
<line x1="342.045" y1="392.87" x2="-160.412" y2="-338.717" stroke="#CDCDCD"/>
<line x1="342.045" y1="401.87" x2="-160.412" y2="-329.717" stroke="#CDCDCD"/>
<line x1="342.045" y1="410.87" x2="-160.412" y2="-320.717" stroke="#CDCDCD"/>
<line x1="342.045" y1="419.87" x2="-160.412" y2="-311.717" stroke="#CDCDCD"/>
<line x1="342.045" y1="428.87" x2="-160.412" y2="-302.717" stroke="#CDCDCD"/>
<line x1="342.045" y1="437.87" x2="-160.412" y2="-293.717" stroke="#CDCDCD"/>
<line x1="342.045" y1="446.87" x2="-160.412" y2="-284.717" stroke="#CDCDCD"/>
<line x1="342.045" y1="455.87" x2="-160.412" y2="-275.717" stroke="#CDCDCD"/>
<line x1="342.045" y1="464.87" x2="-160.412" y2="-266.717" stroke="#CDCDCD"/>
<line x1="342.045" y1="473.87" x2="-160.412" y2="-257.717" stroke="#CDCDCD"/>
<line x1="342.045" y1="482.87" x2="-160.412" y2="-248.717" stroke="#CDCDCD"/>
<line x1="342.045" y1="491.87" x2="-160.412" y2="-239.717" stroke="#CDCDCD"/>
<line x1="342.045" y1="500.87" x2="-160.412" y2="-230.717" stroke="#CDCDCD"/>
<line x1="342.045" y1="509.87" x2="-160.412" y2="-221.717" stroke="#CDCDCD"/>
<line x1="342.045" y1="518.87" x2="-160.412" y2="-212.717" stroke="#CDCDCD"/>
<line x1="342.045" y1="527.87" x2="-160.412" y2="-203.717" stroke="#CDCDCD"/>
<line x1="342.045" y1="536.87" x2="-160.412" y2="-194.717" stroke="#CDCDCD"/>
<line x1="342.045" y1="545.87" x2="-160.412" y2="-185.717" stroke="#CDCDCD"/>
<line x1="342.045" y1="554.87" x2="-160.412" y2="-176.717" stroke="#CDCDCD"/>
<line x1="342.045" y1="563.87" x2="-160.412" y2="-167.717" stroke="#CDCDCD"/>
<line x1="342.045" y1="572.87" x2="-160.412" y2="-158.717" stroke="#CDCDCD"/>
<line x1="342.045" y1="581.87" x2="-160.412" y2="-149.717" stroke="#CDCDCD"/>
<line x1="342.045" y1="590.87" x2="-160.412" y2="-140.717" stroke="#CDCDCD"/>
<line x1="342.045" y1="599.87" x2="-160.412" y2="-131.717" stroke="#CDCDCD"/>
<line x1="342.045" y1="608.87" x2="-160.412" y2="-122.717" stroke="#CDCDCD"/>
<line x1="342.045" y1="617.87" x2="-160.412" y2="-113.717" stroke="#CDCDCD"/>
<line x1="342.045" y1="626.87" x2="-160.412" y2="-104.717" stroke="#CDCDCD"/>
<line x1="342.045" y1="635.87" x2="-160.412" y2="-95.7169" stroke="#CDCDCD"/>
<line x1="342.045" y1="644.87" x2="-160.412" y2="-86.7169" stroke="#CDCDCD"/>
<line x1="342.045" y1="653.87" x2="-160.412" y2="-77.7169" stroke="#CDCDCD"/>
<line x1="342.045" y1="662.87" x2="-160.412" y2="-68.7169" stroke="#CDCDCD"/>
<line x1="342.045" y1="671.87" x2="-160.412" y2="-59.7169" stroke="#CDCDCD"/>
<line x1="342.045" y1="680.87" x2="-160.412" y2="-50.7169" stroke="#CDCDCD"/>
<line x1="342.045" y1="689.87" x2="-160.412" y2="-41.7169" stroke="#CDCDCD"/>
<line x1="342.045" y1="698.87" x2="-160.412" y2="-32.7169" stroke="#CDCDCD"/>
<line x1="342.045" y1="707.87" x2="-160.412" y2="-23.7169" stroke="#CDCDCD"/>
<line x1="342.045" y1="716.87" x2="-160.412" y2="-14.7169" stroke="#CDCDCD"/>
<line x1="342.045" y1="725.87" x2="-160.412" y2="-5.717" stroke="#CDCDCD"/>
<line x1="342.045" y1="734.87" x2="-160.412" y2="3.283" stroke="#CDCDCD"/>
<line x1="342.045" y1="743.87" x2="-160.412" y2="12.283" stroke="#CDCDCD"/>
<line x1="342.045" y1="752.87" x2="-160.412" y2="21.283" stroke="#CDCDCD"/>
<line x1="342.045" y1="761.87" x2="-160.412" y2="30.283" stroke="#CDCDCD"/>
<line x1="342.045" y1="770.87" x2="-160.412" y2="39.283" stroke="#CDCDCD"/>
<line x1="342.045" y1="779.87" x2="-160.412" y2="48.283" stroke="#CDCDCD"/>
<line x1="342.045" y1="788.87" x2="-160.412" y2="57.283" stroke="#CDCDCD"/>
<line x1="342.045" y1="797.87" x2="-160.412" y2="66.283" stroke="#CDCDCD"/>
<line x1="342.045" y1="806.87" x2="-160.412" y2="75.283" stroke="#CDCDCD"/>
</g>
<defs>
<clipPath id="clip0_4_2">
<rect width="200" height="300" fill="white"/>
</clipPath>
</defs>
</svg>
