<svg width="200" height="300" viewBox="0 0 200 300" fill="none" xmlns="http://www.w3.org/2000/svg">
<g clip-path="url(#clip0_5_3)">
<rect width="200" height="300" fill="white"/>
<rect x="-122" y="-148" width="441" height="578" fill="white"/>
<path d="M10.4866 9.00003L15 4.17711L19.5134 9.00003L21 7.41149L15 1.00003L9 7.41149L10.4866 9.00003Z" fill="#EFEFEF"/>
<path d="M19.4866 9.00003L24 4.17711L28.5134 9.00003L30 7.41149L24 1.00003L18 7.41149L19.4866 9.00003Z" fill="#EFEFEF"/>
<path d="M28.4866 9.00003L33 4.17711L37.5134 9.00003L39 7.41149L33 1.00003L27 7.41149L28.4866 9.00003Z" fill="#EFEFEF"/>
<path d="M37.4866 9.00003L42 4.17711L46.5134 9.00003L48 7.41149L42 1.00003L36 7.41149L37.4866 9.00003Z" fill="#EFEFEF"/>
<path d="M46.4866 9.00003L51 4.17711L55.5134 9.00003L57 7.41149L51 1.00003L45 7.41149L46.4866 9.00003Z" fill="#EFEFEF"/>
<path d="M55.4866 9.00003L60 4.17711L64.5134 9.00003L66 7.41149L60 1.00003L54 7.41149L55.4866 9.00003Z" fill="#EFEFEF"/>
<path d="M64.4866 9.00003L69 4.17711L73.5134 9.00003L75 7.41149L69 1.00003L63 7.41149L64.4866 9.00003Z" fill="#EFEFEF"/>
<path d="M73.4866 9.00003L78 4.17711L82.5134 9.00003L84 7.41149L78 1.00003L72 7.41149L73.4866 9.00003Z" fill="#EFEFEF"/>
<path d="M82.4866 9.00003L87 4.17711L91.5134 9.00003L93 7.41149L87 1.00003L81 7.41149L82.4866 9.00003Z" fill="#EFEFEF"/>
<path d="M91.4866 9.00003L96 4.17711L100.513 9.00003L102 7.41149L96 1.00003L90 7.41149L91.4866 9.00003Z" fill="#EFEFEF"/>
<path d="M100.487 9.00003L105 4.17711L109.513 9.00003L111 7.41149L105 1.00003L99 7.41149L100.487 9.00003Z" fill="#EFEFEF"/>
<path d="M109.487 9.00003L114 4.17711L118.513 9.00003L120 7.41149L114 1.00003L108 7.41149L109.487 9.00003Z" fill="#EFEFEF"/>
<path d="M118.487 9.00003L123 4.17711L127.513 9.00003L129 7.41149L123 1.00003L117 7.41149L118.487 9.00003Z" fill="#EFEFEF"/>
<path d="M127.487 9.00003L132 4.17711L136.513 9.00003L138 7.41149L132 1.00003L126 7.41149L127.487 9.00003Z" fill="#EFEFEF"/>
<path d="M136.487 9.00003L141 4.17711L145.513 9.00003L147 7.41149L141 1.00003L135 7.41149L136.487 9.00003Z" fill="#EFEFEF"/>
<path d="M145.487 9.00003L150 4.17711L154.513 9.00003L156 7.41149L150 1.00003L144 7.41149L145.487 9.00003Z" fill="#EFEFEF"/>
<path d="M154.487 9.00003L159 4.17711L163.513 9.00003L165 7.41149L159 1.00003L153 7.41149L154.487 9.00003Z" fill="#EFEFEF"/>
<path d="M163.487 9.00003L168 4.17711L172.513 9.00003L174 7.41149L168 1.00003L162 7.41149L163.487 9.00003Z" fill="#EFEFEF"/>
<path d="M172.487 9.00003L177 4.17711L181.513 9.00003L183 7.41149L177 1.00003L171 7.41149L172.487 9.00003Z" fill="#EFEFEF"/>
<path d="M181.487 9.00003L186 4.17711L190.513 9.00003L192 7.41149L186 1.00003L180 7.41149L181.487 9.00003Z" fill="#EFEFEF"/>
<path d="M190.487 9.00003L195 4.17711L199.513 9.00003L201 7.41149L195 1.00003L189 7.41149L190.487 9.00003Z" fill="#EFEFEF"/>
<path d="M1.4866 9.00003L6 4.17711L10.5134 9.00003L12 7.41149L6 1.00003L-1.09255e-06 7.41149L1.4866 9.00003Z" fill="#EFEFEF"/>
<path d="M10.4866 19L15 14.1771L19.5134 19L21 17.4115L15 11L9 17.4115L10.4866 19Z" fill="#EFEFEF"/>
<path d="M19.4866 19L24 14.1771L28.5134 19L30 17.4115L24 11L18 17.4115L19.4866 19Z" fill="#EFEFEF"/>
<path d="M28.4866 19L33 14.1771L37.5134 19L39 17.4115L33 11L27 17.4115L28.4866 19Z" fill="#EFEFEF"/>
<path d="M37.4866 19L42 14.1771L46.5134 19L48 17.4115L42 11L36 17.4115L37.4866 19Z" fill="#EFEFEF"/>
<path d="M46.4866 19L51 14.1771L55.5134 19L57 17.4115L51 11L45 17.4115L46.4866 19Z" fill="#EFEFEF"/>
<path d="M55.4866 19L60 14.1771L64.5134 19L66 17.4115L60 11L54 17.4115L55.4866 19Z" fill="#EFEFEF"/>
<path d="M64.4866 19L69 14.1771L73.5134 19L75 17.4115L69 11L63 17.4115L64.4866 19Z" fill="#EFEFEF"/>
<path d="M73.4866 19L78 14.1771L82.5134 19L84 17.4115L78 11L72 17.4115L73.4866 19Z" fill="#EFEFEF"/>
<path d="M82.4866 19L87 14.1771L91.5134 19L93 17.4115L87 11L81 17.4115L82.4866 19Z" fill="#EFEFEF"/>
<path d="M91.4866 19L96 14.1771L100.513 19L102 17.4115L96 11L90 17.4115L91.4866 19Z" fill="#EFEFEF"/>
<path d="M100.487 19L105 14.1771L109.513 19L111 17.4115L105 11L99 17.4115L100.487 19Z" fill="#EFEFEF"/>
<path d="M109.487 19L114 14.1771L118.513 19L120 17.4115L114 11L108 17.4115L109.487 19Z" fill="#EFEFEF"/>
<path d="M118.487 19L123 14.1771L127.513 19L129 17.4115L123 11L117 17.4115L118.487 19Z" fill="#EFEFEF"/>
<path d="M127.487 19L132 14.1771L136.513 19L138 17.4115L132 11L126 17.4115L127.487 19Z" fill="#EFEFEF"/>
<path d="M136.487 19L141 14.1771L145.513 19L147 17.4115L141 11L135 17.4115L136.487 19Z" fill="#EFEFEF"/>
<path d="M145.487 19L150 14.1771L154.513 19L156 17.4115L150 11L144 17.4115L145.487 19Z" fill="#EFEFEF"/>
<path d="M154.487 19L159 14.1771L163.513 19L165 17.4115L159 11L153 17.4115L154.487 19Z" fill="#EFEFEF"/>
<path d="M163.487 19L168 14.1771L172.513 19L174 17.4115L168 11L162 17.4115L163.487 19Z" fill="#EFEFEF"/>
<path d="M172.487 19L177 14.1771L181.513 19L183 17.4115L177 11L171 17.4115L172.487 19Z" fill="#EFEFEF"/>
<path d="M181.487 19L186 14.1771L190.513 19L192 17.4115L186 11L180 17.4115L181.487 19Z" fill="#EFEFEF"/>
<path d="M190.487 19L195 14.1771L199.513 19L201 17.4115L195 11L189 17.4115L190.487 19Z" fill="#EFEFEF"/>
<path d="M1.4866 19L6 14.1771L10.5134 19L12 17.4115L6 11L-1.09255e-06 17.4115L1.4866 19Z" fill="#EFEFEF"/>
<path d="M10.4866 29L15 24.1771L19.5134 29L21 27.4115L15 21L9 27.4115L10.4866 29Z" fill="#EFEFEF"/>
<path d="M19.4866 29L24 24.1771L28.5134 29L30 27.4115L24 21L18 27.4115L19.4866 29Z" fill="#EFEFEF"/>
<path d="M28.4866 29L33 24.1771L37.5134 29L39 27.4115L33 21L27 27.4115L28.4866 29Z" fill="#EFEFEF"/>
<path d="M37.4866 29L42 24.1771L46.5134 29L48 27.4115L42 21L36 27.4115L37.4866 29Z" fill="#EFEFEF"/>
<path d="M46.4866 29L51 24.1771L55.5134 29L57 27.4115L51 21L45 27.4115L46.4866 29Z" fill="#EFEFEF"/>
<path d="M55.4866 29L60 24.1771L64.5134 29L66 27.4115L60 21L54 27.4115L55.4866 29Z" fill="#EFEFEF"/>
<path d="M64.4866 29L69 24.1771L73.5134 29L75 27.4115L69 21L63 27.4115L64.4866 29Z" fill="#EFEFEF"/>
<path d="M73.4866 29L78 24.1771L82.5134 29L84 27.4115L78 21L72 27.4115L73.4866 29Z" fill="#EFEFEF"/>
<path d="M82.4866 29L87 24.1771L91.5134 29L93 27.4115L87 21L81 27.4115L82.4866 29Z" fill="#EFEFEF"/>
<path d="M91.4866 29L96 24.1771L100.513 29L102 27.4115L96 21L90 27.4115L91.4866 29Z" fill="#EFEFEF"/>
<path d="M100.487 29L105 24.1771L109.513 29L111 27.4115L105 21L99 27.4115L100.487 29Z" fill="#EFEFEF"/>
<path d="M109.487 29L114 24.1771L118.513 29L120 27.4115L114 21L108 27.4115L109.487 29Z" fill="#EFEFEF"/>
<path d="M118.487 29L123 24.1771L127.513 29L129 27.4115L123 21L117 27.4115L118.487 29Z" fill="#EFEFEF"/>
<path d="M127.487 29L132 24.1771L136.513 29L138 27.4115L132 21L126 27.4115L127.487 29Z" fill="#EFEFEF"/>
<path d="M136.487 29L141 24.1771L145.513 29L147 27.4115L141 21L135 27.4115L136.487 29Z" fill="#EFEFEF"/>
<path d="M145.487 29L150 24.1771L154.513 29L156 27.4115L150 21L144 27.4115L145.487 29Z" fill="#EFEFEF"/>
<path d="M154.487 29L159 24.1771L163.513 29L165 27.4115L159 21L153 27.4115L154.487 29Z" fill="#EFEFEF"/>
<path d="M163.487 29L168 24.1771L172.513 29L174 27.4115L168 21L162 27.4115L163.487 29Z" fill="#EFEFEF"/>
<path d="M172.487 29L177 24.1771L181.513 29L183 27.4115L177 21L171 27.4115L172.487 29Z" fill="#EFEFEF"/>
<path d="M181.487 29L186 24.1771L190.513 29L192 27.4115L186 21L180 27.4115L181.487 29Z" fill="#EFEFEF"/>
<path d="M190.487 29L195 24.1771L199.513 29L201 27.4115L195 21L189 27.4115L190.487 29Z" fill="#EFEFEF"/>
<path d="M1.4866 29L6 24.1771L10.5134 29L12 27.4115L6 21L-1.09255e-06 27.4115L1.4866 29Z" fill="#EFEFEF"/>
<path d="M10.4866 39L15 34.1771L19.5134 39L21 37.4115L15 31L9 37.4115L10.4866 39Z" fill="#EFEFEF"/>
<path d="M19.4866 39L24 34.1771L28.5134 39L30 37.4115L24 31L18 37.4115L19.4866 39Z" fill="#EFEFEF"/>
<path d="M28.4866 39L33 34.1771L37.5134 39L39 37.4115L33 31L27 37.4115L28.4866 39Z" fill="#EFEFEF"/>
<path d="M37.4866 39L42 34.1771L46.5134 39L48 37.4115L42 31L36 37.4115L37.4866 39Z" fill="#EFEFEF"/>
<path d="M46.4866 39L51 34.1771L55.5134 39L57 37.4115L51 31L45 37.4115L46.4866 39Z" fill="#EFEFEF"/>
<path d="M55.4866 39L60 34.1771L64.5134 39L66 37.4115L60 31L54 37.4115L55.4866 39Z" fill="#EFEFEF"/>
<path d="M64.4866 39L69 34.1771L73.5134 39L75 37.4115L69 31L63 37.4115L64.4866 39Z" fill="#EFEFEF"/>
<path d="M73.4866 39L78 34.1771L82.5134 39L84 37.4115L78 31L72 37.4115L73.4866 39Z" fill="#EFEFEF"/>
<path d="M82.4866 39L87 34.1771L91.5134 39L93 37.4115L87 31L81 37.4115L82.4866 39Z" fill="#EFEFEF"/>
<path d="M91.4866 39L96 34.1771L100.513 39L102 37.4115L96 31L90 37.4115L91.4866 39Z" fill="#EFEFEF"/>
<path d="M100.487 39L105 34.1771L109.513 39L111 37.4115L105 31L99 37.4115L100.487 39Z" fill="#EFEFEF"/>
<path d="M109.487 39L114 34.1771L118.513 39L120 37.4115L114 31L108 37.4115L109.487 39Z" fill="#EFEFEF"/>
<path d="M118.487 39L123 34.1771L127.513 39L129 37.4115L123 31L117 37.4115L118.487 39Z" fill="#EFEFEF"/>
<path d="M127.487 39L132 34.1771L136.513 39L138 37.4115L132 31L126 37.4115L127.487 39Z" fill="#EFEFEF"/>
<path d="M136.487 39L141 34.1771L145.513 39L147 37.4115L141 31L135 37.4115L136.487 39Z" fill="#EFEFEF"/>
<path d="M145.487 39L150 34.1771L154.513 39L156 37.4115L150 31L144 37.4115L145.487 39Z" fill="#EFEFEF"/>
<path d="M154.487 39L159 34.1771L163.513 39L165 37.4115L159 31L153 37.4115L154.487 39Z" fill="#EFEFEF"/>
<path d="M163.487 39L168 34.1771L172.513 39L174 37.4115L168 31L162 37.4115L163.487 39Z" fill="#EFEFEF"/>
<path d="M172.487 39L177 34.1771L181.513 39L183 37.4115L177 31L171 37.4115L172.487 39Z" fill="#EFEFEF"/>
<path d="M181.487 39L186 34.1771L190.513 39L192 37.4115L186 31L180 37.4115L181.487 39Z" fill="#EFEFEF"/>
<path d="M190.487 39L195 34.1771L199.513 39L201 37.4115L195 31L189 37.4115L190.487 39Z" fill="#EFEFEF"/>
<path d="M1.4866 39L6 34.1771L10.5134 39L12 37.4115L6 31L-1.09255e-06 37.4115L1.4866 39Z" fill="#EFEFEF"/>
<path d="M10.4866 49L15 44.1771L19.5134 49L21 47.4115L15 41L9 47.4115L10.4866 49Z" fill="#EFEFEF"/>
<path d="M19.4866 49L24 44.1771L28.5134 49L30 47.4115L24 41L18 47.4115L19.4866 49Z" fill="#EFEFEF"/>
<path d="M28.4866 49L33 44.1771L37.5134 49L39 47.4115L33 41L27 47.4115L28.4866 49Z" fill="#EFEFEF"/>
<path d="M37.4866 49L42 44.1771L46.5134 49L48 47.4115L42 41L36 47.4115L37.4866 49Z" fill="#EFEFEF"/>
<path d="M46.4866 49L51 44.1771L55.5134 49L57 47.4115L51 41L45 47.4115L46.4866 49Z" fill="#EFEFEF"/>
<path d="M55.4866 49L60 44.1771L64.5134 49L66 47.4115L60 41L54 47.4115L55.4866 49Z" fill="#EFEFEF"/>
<path d="M64.4866 49L69 44.1771L73.5134 49L75 47.4115L69 41L63 47.4115L64.4866 49Z" fill="#EFEFEF"/>
<path d="M73.4866 49L78 44.1771L82.5134 49L84 47.4115L78 41L72 47.4115L73.4866 49Z" fill="#EFEFEF"/>
<path d="M82.4866 49L87 44.1771L91.5134 49L93 47.4115L87 41L81 47.4115L82.4866 49Z" fill="#EFEFEF"/>
<path d="M91.4866 49L96 44.1771L100.513 49L102 47.4115L96 41L90 47.4115L91.4866 49Z" fill="#EFEFEF"/>
<path d="M100.487 49L105 44.1771L109.513 49L111 47.4115L105 41L99 47.4115L100.487 49Z" fill="#EFEFEF"/>
<path d="M109.487 49L114 44.1771L118.513 49L120 47.4115L114 41L108 47.4115L109.487 49Z" fill="#EFEFEF"/>
<path d="M118.487 49L123 44.1771L127.513 49L129 47.4115L123 41L117 47.4115L118.487 49Z" fill="#EFEFEF"/>
<path d="M127.487 49L132 44.1771L136.513 49L138 47.4115L132 41L126 47.4115L127.487 49Z" fill="#EFEFEF"/>
<path d="M136.487 49L141 44.1771L145.513 49L147 47.4115L141 41L135 47.4115L136.487 49Z" fill="#EFEFEF"/>
<path d="M145.487 49L150 44.1771L154.513 49L156 47.4115L150 41L144 47.4115L145.487 49Z" fill="#EFEFEF"/>
<path d="M154.487 49L159 44.1771L163.513 49L165 47.4115L159 41L153 47.4115L154.487 49Z" fill="#EFEFEF"/>
<path d="M163.487 49L168 44.1771L172.513 49L174 47.4115L168 41L162 47.4115L163.487 49Z" fill="#EFEFEF"/>
<path d="M172.487 49L177 44.1771L181.513 49L183 47.4115L177 41L171 47.4115L172.487 49Z" fill="#EFEFEF"/>
<path d="M181.487 49L186 44.1771L190.513 49L192 47.4115L186 41L180 47.4115L181.487 49Z" fill="#EFEFEF"/>
<path d="M190.487 49L195 44.1771L199.513 49L201 47.4115L195 41L189 47.4115L190.487 49Z" fill="#EFEFEF"/>
<path d="M1.4866 49L6 44.1771L10.5134 49L12 47.4115L6 41L-1.09255e-06 47.4115L1.4866 49Z" fill="#EFEFEF"/>
<path d="M10.4866 59L15 54.1771L19.5134 59L21 57.4115L15 51L9 57.4115L10.4866 59Z" fill="#EFEFEF"/>
<path d="M19.4866 59L24 54.1771L28.5134 59L30 57.4115L24 51L18 57.4115L19.4866 59Z" fill="#EFEFEF"/>
<path d="M28.4866 59L33 54.1771L37.5134 59L39 57.4115L33 51L27 57.4115L28.4866 59Z" fill="#EFEFEF"/>
<path d="M37.4866 59L42 54.1771L46.5134 59L48 57.4115L42 51L36 57.4115L37.4866 59Z" fill="#EFEFEF"/>
<path d="M46.4866 59L51 54.1771L55.5134 59L57 57.4115L51 51L45 57.4115L46.4866 59Z" fill="#EFEFEF"/>
<path d="M55.4866 59L60 54.1771L64.5134 59L66 57.4115L60 51L54 57.4115L55.4866 59Z" fill="#EFEFEF"/>
<path d="M64.4866 59L69 54.1771L73.5134 59L75 57.4115L69 51L63 57.4115L64.4866 59Z" fill="#EFEFEF"/>
<path d="M73.4866 59L78 54.1771L82.5134 59L84 57.4115L78 51L72 57.4115L73.4866 59Z" fill="#EFEFEF"/>
<path d="M82.4866 59L87 54.1771L91.5134 59L93 57.4115L87 51L81 57.4115L82.4866 59Z" fill="#EFEFEF"/>
<path d="M91.4866 59L96 54.1771L100.513 59L102 57.4115L96 51L90 57.4115L91.4866 59Z" fill="#EFEFEF"/>
<path d="M100.487 59L105 54.1771L109.513 59L111 57.4115L105 51L99 57.4115L100.487 59Z" fill="#EFEFEF"/>
<path d="M109.487 59L114 54.1771L118.513 59L120 57.4115L114 51L108 57.4115L109.487 59Z" fill="#EFEFEF"/>
<path d="M118.487 59L123 54.1771L127.513 59L129 57.4115L123 51L117 57.4115L118.487 59Z" fill="#EFEFEF"/>
<path d="M127.487 59L132 54.1771L136.513 59L138 57.4115L132 51L126 57.4115L127.487 59Z" fill="#EFEFEF"/>
<path d="M136.487 59L141 54.1771L145.513 59L147 57.4115L141 51L135 57.4115L136.487 59Z" fill="#EFEFEF"/>
<path d="M145.487 59L150 54.1771L154.513 59L156 57.4115L150 51L144 57.4115L145.487 59Z" fill="#EFEFEF"/>
<path d="M154.487 59L159 54.1771L163.513 59L165 57.4115L159 51L153 57.4115L154.487 59Z" fill="#EFEFEF"/>
<path d="M163.487 59L168 54.1771L172.513 59L174 57.4115L168 51L162 57.4115L163.487 59Z" fill="#EFEFEF"/>
<path d="M172.487 59L177 54.1771L181.513 59L183 57.4115L177 51L171 57.4115L172.487 59Z" fill="#EFEFEF"/>
<path d="M181.487 59L186 54.1771L190.513 59L192 57.4115L186 51L180 57.4115L181.487 59Z" fill="#EFEFEF"/>
<path d="M190.487 59L195 54.1771L199.513 59L201 57.4115L195 51L189 57.4115L190.487 59Z" fill="#EFEFEF"/>
<path d="M1.4866 59L6 54.1771L10.5134 59L12 57.4115L6 51L-1.09255e-06 57.4115L1.4866 59Z" fill="#EFEFEF"/>
<path d="M10.4866 69L15 64.1771L19.5134 69L21 67.4115L15 61L9 67.4115L10.4866 69Z" fill="#EFEFEF"/>
<path d="M19.4866 69L24 64.1771L28.5134 69L30 67.4115L24 61L18 67.4115L19.4866 69Z" fill="#EFEFEF"/>
<path d="M28.4866 69L33 64.1771L37.5134 69L39 67.4115L33 61L27 67.4115L28.4866 69Z" fill="#EFEFEF"/>
<path d="M37.4866 69L42 64.1771L46.5134 69L48 67.4115L42 61L36 67.4115L37.4866 69Z" fill="#EFEFEF"/>
<path d="M46.4866 69L51 64.1771L55.5134 69L57 67.4115L51 61L45 67.4115L46.4866 69Z" fill="#EFEFEF"/>
<path d="M55.4866 69L60 64.1771L64.5134 69L66 67.4115L60 61L54 67.4115L55.4866 69Z" fill="#EFEFEF"/>
<path d="M64.4866 69L69 64.1771L73.5134 69L75 67.4115L69 61L63 67.4115L64.4866 69Z" fill="#EFEFEF"/>
<path d="M73.4866 69L78 64.1771L82.5134 69L84 67.4115L78 61L72 67.4115L73.4866 69Z" fill="#EFEFEF"/>
<path d="M82.4866 69L87 64.1771L91.5134 69L93 67.4115L87 61L81 67.4115L82.4866 69Z" fill="#EFEFEF"/>
<path d="M91.4866 69L96 64.1771L100.513 69L102 67.4115L96 61L90 67.4115L91.4866 69Z" fill="#EFEFEF"/>
<path d="M100.487 69L105 64.1771L109.513 69L111 67.4115L105 61L99 67.4115L100.487 69Z" fill="#EFEFEF"/>
<path d="M109.487 69L114 64.1771L118.513 69L120 67.4115L114 61L108 67.4115L109.487 69Z" fill="#EFEFEF"/>
<path d="M118.487 69L123 64.1771L127.513 69L129 67.4115L123 61L117 67.4115L118.487 69Z" fill="#EFEFEF"/>
<path d="M127.487 69L132 64.1771L136.513 69L138 67.4115L132 61L126 67.4115L127.487 69Z" fill="#EFEFEF"/>
<path d="M136.487 69L141 64.1771L145.513 69L147 67.4115L141 61L135 67.4115L136.487 69Z" fill="#EFEFEF"/>
<path d="M145.487 69L150 64.1771L154.513 69L156 67.4115L150 61L144 67.4115L145.487 69Z" fill="#EFEFEF"/>
<path d="M154.487 69L159 64.1771L163.513 69L165 67.4115L159 61L153 67.4115L154.487 69Z" fill="#EFEFEF"/>
<path d="M163.487 69L168 64.1771L172.513 69L174 67.4115L168 61L162 67.4115L163.487 69Z" fill="#EFEFEF"/>
<path d="M172.487 69L177 64.1771L181.513 69L183 67.4115L177 61L171 67.4115L172.487 69Z" fill="#EFEFEF"/>
<path d="M181.487 69L186 64.1771L190.513 69L192 67.4115L186 61L180 67.4115L181.487 69Z" fill="#EFEFEF"/>
<path d="M190.487 69L195 64.1771L199.513 69L201 67.4115L195 61L189 67.4115L190.487 69Z" fill="#EFEFEF"/>
<path d="M1.4866 69L6 64.1771L10.5134 69L12 67.4115L6 61L-1.09255e-06 67.4115L1.4866 69Z" fill="#EFEFEF"/>
<path d="M10.4866 79L15 74.1771L19.5134 79L21 77.4115L15 71L9 77.4115L10.4866 79Z" fill="#EFEFEF"/>
<path d="M19.4866 79L24 74.1771L28.5134 79L30 77.4115L24 71L18 77.4115L19.4866 79Z" fill="#EFEFEF"/>
<path d="M28.4866 79L33 74.1771L37.5134 79L39 77.4115L33 71L27 77.4115L28.4866 79Z" fill="#EFEFEF"/>
<path d="M37.4866 79L42 74.1771L46.5134 79L48 77.4115L42 71L36 77.4115L37.4866 79Z" fill="#EFEFEF"/>
<path d="M46.4866 79L51 74.1771L55.5134 79L57 77.4115L51 71L45 77.4115L46.4866 79Z" fill="#EFEFEF"/>
<path d="M55.4866 79L60 74.1771L64.5134 79L66 77.4115L60 71L54 77.4115L55.4866 79Z" fill="#EFEFEF"/>
<path d="M64.4866 79L69 74.1771L73.5134 79L75 77.4115L69 71L63 77.4115L64.4866 79Z" fill="#EFEFEF"/>
<path d="M73.4866 79L78 74.1771L82.5134 79L84 77.4115L78 71L72 77.4115L73.4866 79Z" fill="#EFEFEF"/>
<path d="M82.4866 79L87 74.1771L91.5134 79L93 77.4115L87 71L81 77.4115L82.4866 79Z" fill="#EFEFEF"/>
<path d="M91.4866 79L96 74.1771L100.513 79L102 77.4115L96 71L90 77.4115L91.4866 79Z" fill="#EFEFEF"/>
<path d="M100.487 79L105 74.1771L109.513 79L111 77.4115L105 71L99 77.4115L100.487 79Z" fill="#EFEFEF"/>
<path d="M109.487 79L114 74.1771L118.513 79L120 77.4115L114 71L108 77.4115L109.487 79Z" fill="#EFEFEF"/>
<path d="M118.487 79L123 74.1771L127.513 79L129 77.4115L123 71L117 77.4115L118.487 79Z" fill="#EFEFEF"/>
<path d="M127.487 79L132 74.1771L136.513 79L138 77.4115L132 71L126 77.4115L127.487 79Z" fill="#EFEFEF"/>
<path d="M136.487 79L141 74.1771L145.513 79L147 77.4115L141 71L135 77.4115L136.487 79Z" fill="#EFEFEF"/>
<path d="M145.487 79L150 74.1771L154.513 79L156 77.4115L150 71L144 77.4115L145.487 79Z" fill="#EFEFEF"/>
<path d="M154.487 79L159 74.1771L163.513 79L165 77.4115L159 71L153 77.4115L154.487 79Z" fill="#EFEFEF"/>
<path d="M163.487 79L168 74.1771L172.513 79L174 77.4115L168 71L162 77.4115L163.487 79Z" fill="#EFEFEF"/>
<path d="M172.487 79L177 74.1771L181.513 79L183 77.4115L177 71L171 77.4115L172.487 79Z" fill="#EFEFEF"/>
<path d="M181.487 79L186 74.1771L190.513 79L192 77.4115L186 71L180 77.4115L181.487 79Z" fill="#EFEFEF"/>
<path d="M190.487 79L195 74.1771L199.513 79L201 77.4115L195 71L189 77.4115L190.487 79Z" fill="#EFEFEF"/>
<path d="M1.4866 79L6 74.1771L10.5134 79L12 77.4115L6 71L-1.09255e-06 77.4115L1.4866 79Z" fill="#EFEFEF"/>
<path d="M10.4866 89L15 84.1771L19.5134 89L21 87.4115L15 81L9 87.4115L10.4866 89Z" fill="#EFEFEF"/>
<path d="M19.4866 89L24 84.1771L28.5134 89L30 87.4115L24 81L18 87.4115L19.4866 89Z" fill="#EFEFEF"/>
<path d="M28.4866 89L33 84.1771L37.5134 89L39 87.4115L33 81L27 87.4115L28.4866 89Z" fill="#EFEFEF"/>
<path d="M37.4866 89L42 84.1771L46.5134 89L48 87.4115L42 81L36 87.4115L37.4866 89Z" fill="#EFEFEF"/>
<path d="M46.4866 89L51 84.1771L55.5134 89L57 87.4115L51 81L45 87.4115L46.4866 89Z" fill="#EFEFEF"/>
<path d="M55.4866 89L60 84.1771L64.5134 89L66 87.4115L60 81L54 87.4115L55.4866 89Z" fill="#EFEFEF"/>
<path d="M64.4866 89L69 84.1771L73.5134 89L75 87.4115L69 81L63 87.4115L64.4866 89Z" fill="#EFEFEF"/>
<path d="M73.4866 89L78 84.1771L82.5134 89L84 87.4115L78 81L72 87.4115L73.4866 89Z" fill="#EFEFEF"/>
<path d="M82.4866 89L87 84.1771L91.5134 89L93 87.4115L87 81L81 87.4115L82.4866 89Z" fill="#EFEFEF"/>
<path d="M91.4866 89L96 84.1771L100.513 89L102 87.4115L96 81L90 87.4115L91.4866 89Z" fill="#EFEFEF"/>
<path d="M100.487 89L105 84.1771L109.513 89L111 87.4115L105 81L99 87.4115L100.487 89Z" fill="#EFEFEF"/>
<path d="M109.487 89L114 84.1771L118.513 89L120 87.4115L114 81L108 87.4115L109.487 89Z" fill="#EFEFEF"/>
<path d="M118.487 89L123 84.1771L127.513 89L129 87.4115L123 81L117 87.4115L118.487 89Z" fill="#EFEFEF"/>
<path d="M127.487 89L132 84.1771L136.513 89L138 87.4115L132 81L126 87.4115L127.487 89Z" fill="#EFEFEF"/>
<path d="M136.487 89L141 84.1771L145.513 89L147 87.4115L141 81L135 87.4115L136.487 89Z" fill="#EFEFEF"/>
<path d="M145.487 89L150 84.1771L154.513 89L156 87.4115L150 81L144 87.4115L145.487 89Z" fill="#EFEFEF"/>
<path d="M154.487 89L159 84.1771L163.513 89L165 87.4115L159 81L153 87.4115L154.487 89Z" fill="#EFEFEF"/>
<path d="M163.487 89L168 84.1771L172.513 89L174 87.4115L168 81L162 87.4115L163.487 89Z" fill="#EFEFEF"/>
<path d="M172.487 89L177 84.1771L181.513 89L183 87.4115L177 81L171 87.4115L172.487 89Z" fill="#EFEFEF"/>
<path d="M181.487 89L186 84.1771L190.513 89L192 87.4115L186 81L180 87.4115L181.487 89Z" fill="#EFEFEF"/>
<path d="M190.487 89L195 84.1771L199.513 89L201 87.4115L195 81L189 87.4115L190.487 89Z" fill="#EFEFEF"/>
<path d="M1.4866 89L6 84.1771L10.5134 89L12 87.4115L6 81L-1.09255e-06 87.4115L1.4866 89Z" fill="#EFEFEF"/>
<path d="M10.4866 99L15 94.1771L19.5134 99L21 97.4115L15 91L9 97.4115L10.4866 99Z" fill="#EFEFEF"/>
<path d="M19.4866 99L24 94.1771L28.5134 99L30 97.4115L24 91L18 97.4115L19.4866 99Z" fill="#EFEFEF"/>
<path d="M28.4866 99L33 94.1771L37.5134 99L39 97.4115L33 91L27 97.4115L28.4866 99Z" fill="#EFEFEF"/>
<path d="M37.4866 99L42 94.1771L46.5134 99L48 97.4115L42 91L36 97.4115L37.4866 99Z" fill="#EFEFEF"/>
<path d="M46.4866 99L51 94.1771L55.5134 99L57 97.4115L51 91L45 97.4115L46.4866 99Z" fill="#EFEFEF"/>
<path d="M55.4866 99L60 94.1771L64.5134 99L66 97.4115L60 91L54 97.4115L55.4866 99Z" fill="#EFEFEF"/>
<path d="M64.4866 99L69 94.1771L73.5134 99L75 97.4115L69 91L63 97.4115L64.4866 99Z" fill="#EFEFEF"/>
<path d="M73.4866 99L78 94.1771L82.5134 99L84 97.4115L78 91L72 97.4115L73.4866 99Z" fill="#EFEFEF"/>
<path d="M82.4866 99L87 94.1771L91.5134 99L93 97.4115L87 91L81 97.4115L82.4866 99Z" fill="#EFEFEF"/>
<path d="M91.4866 99L96 94.1771L100.513 99L102 97.4115L96 91L90 97.4115L91.4866 99Z" fill="#EFEFEF"/>
<path d="M100.487 99L105 94.1771L109.513 99L111 97.4115L105 91L99 97.4115L100.487 99Z" fill="#EFEFEF"/>
<path d="M109.487 99L114 94.1771L118.513 99L120 97.4115L114 91L108 97.4115L109.487 99Z" fill="#EFEFEF"/>
<path d="M118.487 99L123 94.1771L127.513 99L129 97.4115L123 91L117 97.4115L118.487 99Z" fill="#EFEFEF"/>
<path d="M127.487 99L132 94.1771L136.513 99L138 97.4115L132 91L126 97.4115L127.487 99Z" fill="#EFEFEF"/>
<path d="M136.487 99L141 94.1771L145.513 99L147 97.4115L141 91L135 97.4115L136.487 99Z" fill="#EFEFEF"/>
<path d="M145.487 99L150 94.1771L154.513 99L156 97.4115L150 91L144 97.4115L145.487 99Z" fill="#EFEFEF"/>
<path d="M154.487 99L159 94.1771L163.513 99L165 97.4115L159 91L153 97.4115L154.487 99Z" fill="#EFEFEF"/>
<path d="M163.487 99L168 94.1771L172.513 99L174 97.4115L168 91L162 97.4115L163.487 99Z" fill="#EFEFEF"/>
<path d="M172.487 99L177 94.1771L181.513 99L183 97.4115L177 91L171 97.4115L172.487 99Z" fill="#EFEFEF"/>
<path d="M181.487 99L186 94.1771L190.513 99L192 97.4115L186 91L180 97.4115L181.487 99Z" fill="#EFEFEF"/>
<path d="M190.487 99L195 94.1771L199.513 99L201 97.4115L195 91L189 97.4115L190.487 99Z" fill="#EFEFEF"/>
<path d="M1.4866 99L6 94.1771L10.5134 99L12 97.4115L6 91L-1.09255e-06 97.4115L1.4866 99Z" fill="#EFEFEF"/>
<path d="M10.4866 109L15 104.177L19.5134 109L21 107.411L15 101L9 107.411L10.4866 109Z" fill="#EFEFEF"/>
<path d="M19.4866 109L24 104.177L28.5134 109L30 107.411L24 101L18 107.411L19.4866 109Z" fill="#EFEFEF"/>
<path d="M28.4866 109L33 104.177L37.5134 109L39 107.411L33 101L27 107.411L28.4866 109Z" fill="#EFEFEF"/>
<path d="M37.4866 109L42 104.177L46.5134 109L48 107.411L42 101L36 107.411L37.4866 109Z" fill="#EFEFEF"/>
<path d="M46.4866 109L51 104.177L55.5134 109L57 107.411L51 101L45 107.411L46.4866 109Z" fill="#EFEFEF"/>
<path d="M55.4866 109L60 104.177L64.5134 109L66 107.411L60 101L54 107.411L55.4866 109Z" fill="#EFEFEF"/>
<path d="M64.4866 109L69 104.177L73.5134 109L75 107.411L69 101L63 107.411L64.4866 109Z" fill="#EFEFEF"/>
<path d="M73.4866 109L78 104.177L82.5134 109L84 107.411L78 101L72 107.411L73.4866 109Z" fill="#EFEFEF"/>
<path d="M82.4866 109L87 104.177L91.5134 109L93 107.411L87 101L81 107.411L82.4866 109Z" fill="#EFEFEF"/>
<path d="M91.4866 109L96 104.177L100.513 109L102 107.411L96 101L90 107.411L91.4866 109Z" fill="#EFEFEF"/>
<path d="M100.487 109L105 104.177L109.513 109L111 107.411L105 101L99 107.411L100.487 109Z" fill="#EFEFEF"/>
<path d="M109.487 109L114 104.177L118.513 109L120 107.411L114 101L108 107.411L109.487 109Z" fill="#EFEFEF"/>
<path d="M118.487 109L123 104.177L127.513 109L129 107.411L123 101L117 107.411L118.487 109Z" fill="#EFEFEF"/>
<path d="M127.487 109L132 104.177L136.513 109L138 107.411L132 101L126 107.411L127.487 109Z" fill="#EFEFEF"/>
<path d="M136.487 109L141 104.177L145.513 109L147 107.411L141 101L135 107.411L136.487 109Z" fill="#EFEFEF"/>
<path d="M145.487 109L150 104.177L154.513 109L156 107.411L150 101L144 107.411L145.487 109Z" fill="#EFEFEF"/>
<path d="M154.487 109L159 104.177L163.513 109L165 107.411L159 101L153 107.411L154.487 109Z" fill="#EFEFEF"/>
<path d="M163.487 109L168 104.177L172.513 109L174 107.411L168 101L162 107.411L163.487 109Z" fill="#EFEFEF"/>
<path d="M172.487 109L177 104.177L181.513 109L183 107.411L177 101L171 107.411L172.487 109Z" fill="#EFEFEF"/>
<path d="M181.487 109L186 104.177L190.513 109L192 107.411L186 101L180 107.411L181.487 109Z" fill="#EFEFEF"/>
<path d="M190.487 109L195 104.177L199.513 109L201 107.411L195 101L189 107.411L190.487 109Z" fill="#EFEFEF"/>
<path d="M1.4866 109L6 104.177L10.5134 109L12 107.411L6 101L-1.09255e-06 107.411L1.4866 109Z" fill="#EFEFEF"/>
<path d="M10.4866 119L15 114.177L19.5134 119L21 117.411L15 111L9 117.411L10.4866 119Z" fill="#EFEFEF"/>
<path d="M19.4866 119L24 114.177L28.5134 119L30 117.411L24 111L18 117.411L19.4866 119Z" fill="#EFEFEF"/>
<path d="M28.4866 119L33 114.177L37.5134 119L39 117.411L33 111L27 117.411L28.4866 119Z" fill="#EFEFEF"/>
<path d="M37.4866 119L42 114.177L46.5134 119L48 117.411L42 111L36 117.411L37.4866 119Z" fill="#EFEFEF"/>
<path d="M46.4866 119L51 114.177L55.5134 119L57 117.411L51 111L45 117.411L46.4866 119Z" fill="#EFEFEF"/>
<path d="M55.4866 119L60 114.177L64.5134 119L66 117.411L60 111L54 117.411L55.4866 119Z" fill="#EFEFEF"/>
<path d="M64.4866 119L69 114.177L73.5134 119L75 117.411L69 111L63 117.411L64.4866 119Z" fill="#EFEFEF"/>
<path d="M73.4866 119L78 114.177L82.5134 119L84 117.411L78 111L72 117.411L73.4866 119Z" fill="#EFEFEF"/>
<path d="M82.4866 119L87 114.177L91.5134 119L93 117.411L87 111L81 117.411L82.4866 119Z" fill="#EFEFEF"/>
<path d="M91.4866 119L96 114.177L100.513 119L102 117.411L96 111L90 117.411L91.4866 119Z" fill="#EFEFEF"/>
<path d="M100.487 119L105 114.177L109.513 119L111 117.411L105 111L99 117.411L100.487 119Z" fill="#EFEFEF"/>
<path d="M109.487 119L114 114.177L118.513 119L120 117.411L114 111L108 117.411L109.487 119Z" fill="#EFEFEF"/>
<path d="M118.487 119L123 114.177L127.513 119L129 117.411L123 111L117 117.411L118.487 119Z" fill="#EFEFEF"/>
<path d="M127.487 119L132 114.177L136.513 119L138 117.411L132 111L126 117.411L127.487 119Z" fill="#EFEFEF"/>
<path d="M136.487 119L141 114.177L145.513 119L147 117.411L141 111L135 117.411L136.487 119Z" fill="#EFEFEF"/>
<path d="M145.487 119L150 114.177L154.513 119L156 117.411L150 111L144 117.411L145.487 119Z" fill="#EFEFEF"/>
<path d="M154.487 119L159 114.177L163.513 119L165 117.411L159 111L153 117.411L154.487 119Z" fill="#EFEFEF"/>
<path d="M163.487 119L168 114.177L172.513 119L174 117.411L168 111L162 117.411L163.487 119Z" fill="#EFEFEF"/>
<path d="M172.487 119L177 114.177L181.513 119L183 117.411L177 111L171 117.411L172.487 119Z" fill="#EFEFEF"/>
<path d="M181.487 119L186 114.177L190.513 119L192 117.411L186 111L180 117.411L181.487 119Z" fill="#EFEFEF"/>
<path d="M190.487 119L195 114.177L199.513 119L201 117.411L195 111L189 117.411L190.487 119Z" fill="#EFEFEF"/>
<path d="M1.4866 119L6 114.177L10.5134 119L12 117.411L6 111L-1.09255e-06 117.411L1.4866 119Z" fill="#EFEFEF"/>
<path d="M10.4866 129L15 124.177L19.5134 129L21 127.411L15 121L9 127.411L10.4866 129Z" fill="#EFEFEF"/>
<path d="M19.4866 129L24 124.177L28.5134 129L30 127.411L24 121L18 127.411L19.4866 129Z" fill="#EFEFEF"/>
<path d="M28.4866 129L33 124.177L37.5134 129L39 127.411L33 121L27 127.411L28.4866 129Z" fill="#EFEFEF"/>
<path d="M37.4866 129L42 124.177L46.5134 129L48 127.411L42 121L36 127.411L37.4866 129Z" fill="#EFEFEF"/>
<path d="M46.4866 129L51 124.177L55.5134 129L57 127.411L51 121L45 127.411L46.4866 129Z" fill="#EFEFEF"/>
<path d="M55.4866 129L60 124.177L64.5134 129L66 127.411L60 121L54 127.411L55.4866 129Z" fill="#EFEFEF"/>
<path d="M64.4866 129L69 124.177L73.5134 129L75 127.411L69 121L63 127.411L64.4866 129Z" fill="#EFEFEF"/>
<path d="M73.4866 129L78 124.177L82.5134 129L84 127.411L78 121L72 127.411L73.4866 129Z" fill="#EFEFEF"/>
<path d="M82.4866 129L87 124.177L91.5134 129L93 127.411L87 121L81 127.411L82.4866 129Z" fill="#EFEFEF"/>
<path d="M91.4866 129L96 124.177L100.513 129L102 127.411L96 121L90 127.411L91.4866 129Z" fill="#EFEFEF"/>
<path d="M100.487 129L105 124.177L109.513 129L111 127.411L105 121L99 127.411L100.487 129Z" fill="#EFEFEF"/>
<path d="M109.487 129L114 124.177L118.513 129L120 127.411L114 121L108 127.411L109.487 129Z" fill="#EFEFEF"/>
<path d="M118.487 129L123 124.177L127.513 129L129 127.411L123 121L117 127.411L118.487 129Z" fill="#EFEFEF"/>
<path d="M127.487 129L132 124.177L136.513 129L138 127.411L132 121L126 127.411L127.487 129Z" fill="#EFEFEF"/>
<path d="M136.487 129L141 124.177L145.513 129L147 127.411L141 121L135 127.411L136.487 129Z" fill="#EFEFEF"/>
<path d="M145.487 129L150 124.177L154.513 129L156 127.411L150 121L144 127.411L145.487 129Z" fill="#EFEFEF"/>
<path d="M154.487 129L159 124.177L163.513 129L165 127.411L159 121L153 127.411L154.487 129Z" fill="#EFEFEF"/>
<path d="M163.487 129L168 124.177L172.513 129L174 127.411L168 121L162 127.411L163.487 129Z" fill="#EFEFEF"/>
<path d="M172.487 129L177 124.177L181.513 129L183 127.411L177 121L171 127.411L172.487 129Z" fill="#EFEFEF"/>
<path d="M181.487 129L186 124.177L190.513 129L192 127.411L186 121L180 127.411L181.487 129Z" fill="#EFEFEF"/>
<path d="M190.487 129L195 124.177L199.513 129L201 127.411L195 121L189 127.411L190.487 129Z" fill="#EFEFEF"/>
<path d="M1.4866 129L6 124.177L10.5134 129L12 127.411L6 121L-1.09255e-06 127.411L1.4866 129Z" fill="#EFEFEF"/>
<path d="M10.4866 139L15 134.177L19.5134 139L21 137.411L15 131L9 137.411L10.4866 139Z" fill="#EFEFEF"/>
<path d="M19.4866 139L24 134.177L28.5134 139L30 137.411L24 131L18 137.411L19.4866 139Z" fill="#EFEFEF"/>
<path d="M28.4866 139L33 134.177L37.5134 139L39 137.411L33 131L27 137.411L28.4866 139Z" fill="#EFEFEF"/>
<path d="M37.4866 139L42 134.177L46.5134 139L48 137.411L42 131L36 137.411L37.4866 139Z" fill="#EFEFEF"/>
<path d="M46.4866 139L51 134.177L55.5134 139L57 137.411L51 131L45 137.411L46.4866 139Z" fill="#EFEFEF"/>
<path d="M55.4866 139L60 134.177L64.5134 139L66 137.411L60 131L54 137.411L55.4866 139Z" fill="#EFEFEF"/>
<path d="M64.4866 139L69 134.177L73.5134 139L75 137.411L69 131L63 137.411L64.4866 139Z" fill="#EFEFEF"/>
<path d="M73.4866 139L78 134.177L82.5134 139L84 137.411L78 131L72 137.411L73.4866 139Z" fill="#EFEFEF"/>
<path d="M82.4866 139L87 134.177L91.5134 139L93 137.411L87 131L81 137.411L82.4866 139Z" fill="#EFEFEF"/>
<path d="M91.4866 139L96 134.177L100.513 139L102 137.411L96 131L90 137.411L91.4866 139Z" fill="#EFEFEF"/>
<path d="M100.487 139L105 134.177L109.513 139L111 137.411L105 131L99 137.411L100.487 139Z" fill="#EFEFEF"/>
<path d="M109.487 139L114 134.177L118.513 139L120 137.411L114 131L108 137.411L109.487 139Z" fill="#EFEFEF"/>
<path d="M118.487 139L123 134.177L127.513 139L129 137.411L123 131L117 137.411L118.487 139Z" fill="#EFEFEF"/>
<path d="M127.487 139L132 134.177L136.513 139L138 137.411L132 131L126 137.411L127.487 139Z" fill="#EFEFEF"/>
<path d="M136.487 139L141 134.177L145.513 139L147 137.411L141 131L135 137.411L136.487 139Z" fill="#EFEFEF"/>
<path d="M145.487 139L150 134.177L154.513 139L156 137.411L150 131L144 137.411L145.487 139Z" fill="#EFEFEF"/>
<path d="M154.487 139L159 134.177L163.513 139L165 137.411L159 131L153 137.411L154.487 139Z" fill="#EFEFEF"/>
<path d="M163.487 139L168 134.177L172.513 139L174 137.411L168 131L162 137.411L163.487 139Z" fill="#EFEFEF"/>
<path d="M172.487 139L177 134.177L181.513 139L183 137.411L177 131L171 137.411L172.487 139Z" fill="#EFEFEF"/>
<path d="M181.487 139L186 134.177L190.513 139L192 137.411L186 131L180 137.411L181.487 139Z" fill="#EFEFEF"/>
<path d="M190.487 139L195 134.177L199.513 139L201 137.411L195 131L189 137.411L190.487 139Z" fill="#EFEFEF"/>
<path d="M1.4866 139L6 134.177L10.5134 139L12 137.411L6 131L-1.09255e-06 137.411L1.4866 139Z" fill="#EFEFEF"/>
<path d="M10.4866 149L15 144.177L19.5134 149L21 147.411L15 141L9 147.411L10.4866 149Z" fill="#EFEFEF"/>
<path d="M19.4866 149L24 144.177L28.5134 149L30 147.411L24 141L18 147.411L19.4866 149Z" fill="#EFEFEF"/>
<path d="M28.4866 149L33 144.177L37.5134 149L39 147.411L33 141L27 147.411L28.4866 149Z" fill="#EFEFEF"/>
<path d="M37.4866 149L42 144.177L46.5134 149L48 147.411L42 141L36 147.411L37.4866 149Z" fill="#EFEFEF"/>
<path d="M46.4866 149L51 144.177L55.5134 149L57 147.411L51 141L45 147.411L46.4866 149Z" fill="#EFEFEF"/>
<path d="M55.4866 149L60 144.177L64.5134 149L66 147.411L60 141L54 147.411L55.4866 149Z" fill="#EFEFEF"/>
<path d="M64.4866 149L69 144.177L73.5134 149L75 147.411L69 141L63 147.411L64.4866 149Z" fill="#EFEFEF"/>
<path d="M73.4866 149L78 144.177L82.5134 149L84 147.411L78 141L72 147.411L73.4866 149Z" fill="#EFEFEF"/>
<path d="M82.4866 149L87 144.177L91.5134 149L93 147.411L87 141L81 147.411L82.4866 149Z" fill="#EFEFEF"/>
<path d="M91.4866 149L96 144.177L100.513 149L102 147.411L96 141L90 147.411L91.4866 149Z" fill="#EFEFEF"/>
<path d="M100.487 149L105 144.177L109.513 149L111 147.411L105 141L99 147.411L100.487 149Z" fill="#EFEFEF"/>
<path d="M109.487 149L114 144.177L118.513 149L120 147.411L114 141L108 147.411L109.487 149Z" fill="#EFEFEF"/>
<path d="M118.487 149L123 144.177L127.513 149L129 147.411L123 141L117 147.411L118.487 149Z" fill="#EFEFEF"/>
<path d="M127.487 149L132 144.177L136.513 149L138 147.411L132 141L126 147.411L127.487 149Z" fill="#EFEFEF"/>
<path d="M136.487 149L141 144.177L145.513 149L147 147.411L141 141L135 147.411L136.487 149Z" fill="#EFEFEF"/>
<path d="M145.487 149L150 144.177L154.513 149L156 147.411L150 141L144 147.411L145.487 149Z" fill="#EFEFEF"/>
<path d="M154.487 149L159 144.177L163.513 149L165 147.411L159 141L153 147.411L154.487 149Z" fill="#EFEFEF"/>
<path d="M163.487 149L168 144.177L172.513 149L174 147.411L168 141L162 147.411L163.487 149Z" fill="#EFEFEF"/>
<path d="M172.487 149L177 144.177L181.513 149L183 147.411L177 141L171 147.411L172.487 149Z" fill="#EFEFEF"/>
<path d="M181.487 149L186 144.177L190.513 149L192 147.411L186 141L180 147.411L181.487 149Z" fill="#EFEFEF"/>
<path d="M190.487 149L195 144.177L199.513 149L201 147.411L195 141L189 147.411L190.487 149Z" fill="#EFEFEF"/>
<path d="M1.4866 149L6 144.177L10.5134 149L12 147.411L6 141L-1.09255e-06 147.411L1.4866 149Z" fill="#EFEFEF"/>
<path d="M10.4866 159L15 154.177L19.5134 159L21 157.411L15 151L9 157.411L10.4866 159Z" fill="#EFEFEF"/>
<path d="M19.4866 159L24 154.177L28.5134 159L30 157.411L24 151L18 157.411L19.4866 159Z" fill="#EFEFEF"/>
<path d="M28.4866 159L33 154.177L37.5134 159L39 157.411L33 151L27 157.411L28.4866 159Z" fill="#EFEFEF"/>
<path d="M37.4866 159L42 154.177L46.5134 159L48 157.411L42 151L36 157.411L37.4866 159Z" fill="#EFEFEF"/>
<path d="M46.4866 159L51 154.177L55.5134 159L57 157.411L51 151L45 157.411L46.4866 159Z" fill="#EFEFEF"/>
<path d="M55.4866 159L60 154.177L64.5134 159L66 157.411L60 151L54 157.411L55.4866 159Z" fill="#EFEFEF"/>
<path d="M64.4866 159L69 154.177L73.5134 159L75 157.411L69 151L63 157.411L64.4866 159Z" fill="#EFEFEF"/>
<path d="M73.4866 159L78 154.177L82.5134 159L84 157.411L78 151L72 157.411L73.4866 159Z" fill="#EFEFEF"/>
<path d="M82.4866 159L87 154.177L91.5134 159L93 157.411L87 151L81 157.411L82.4866 159Z" fill="#EFEFEF"/>
<path d="M91.4866 159L96 154.177L100.513 159L102 157.411L96 151L90 157.411L91.4866 159Z" fill="#EFEFEF"/>
<path d="M100.487 159L105 154.177L109.513 159L111 157.411L105 151L99 157.411L100.487 159Z" fill="#EFEFEF"/>
<path d="M109.487 159L114 154.177L118.513 159L120 157.411L114 151L108 157.411L109.487 159Z" fill="#EFEFEF"/>
<path d="M118.487 159L123 154.177L127.513 159L129 157.411L123 151L117 157.411L118.487 159Z" fill="#EFEFEF"/>
<path d="M127.487 159L132 154.177L136.513 159L138 157.411L132 151L126 157.411L127.487 159Z" fill="#EFEFEF"/>
<path d="M136.487 159L141 154.177L145.513 159L147 157.411L141 151L135 157.411L136.487 159Z" fill="#EFEFEF"/>
<path d="M145.487 159L150 154.177L154.513 159L156 157.411L150 151L144 157.411L145.487 159Z" fill="#EFEFEF"/>
<path d="M154.487 159L159 154.177L163.513 159L165 157.411L159 151L153 157.411L154.487 159Z" fill="#EFEFEF"/>
<path d="M163.487 159L168 154.177L172.513 159L174 157.411L168 151L162 157.411L163.487 159Z" fill="#EFEFEF"/>
<path d="M172.487 159L177 154.177L181.513 159L183 157.411L177 151L171 157.411L172.487 159Z" fill="#EFEFEF"/>
<path d="M181.487 159L186 154.177L190.513 159L192 157.411L186 151L180 157.411L181.487 159Z" fill="#EFEFEF"/>
<path d="M190.487 159L195 154.177L199.513 159L201 157.411L195 151L189 157.411L190.487 159Z" fill="#EFEFEF"/>
<path d="M1.4866 159L6 154.177L10.5134 159L12 157.411L6 151L-1.09255e-06 157.411L1.4866 159Z" fill="#EFEFEF"/>
<path d="M10.4866 169L15 164.177L19.5134 169L21 167.411L15 161L9 167.411L10.4866 169Z" fill="#EFEFEF"/>
<path d="M19.4866 169L24 164.177L28.5134 169L30 167.411L24 161L18 167.411L19.4866 169Z" fill="#EFEFEF"/>
<path d="M28.4866 169L33 164.177L37.5134 169L39 167.411L33 161L27 167.411L28.4866 169Z" fill="#EFEFEF"/>
<path d="M37.4866 169L42 164.177L46.5134 169L48 167.411L42 161L36 167.411L37.4866 169Z" fill="#EFEFEF"/>
<path d="M46.4866 169L51 164.177L55.5134 169L57 167.411L51 161L45 167.411L46.4866 169Z" fill="#EFEFEF"/>
<path d="M55.4866 169L60 164.177L64.5134 169L66 167.411L60 161L54 167.411L55.4866 169Z" fill="#EFEFEF"/>
<path d="M64.4866 169L69 164.177L73.5134 169L75 167.411L69 161L63 167.411L64.4866 169Z" fill="#EFEFEF"/>
<path d="M73.4866 169L78 164.177L82.5134 169L84 167.411L78 161L72 167.411L73.4866 169Z" fill="#EFEFEF"/>
<path d="M82.4866 169L87 164.177L91.5134 169L93 167.411L87 161L81 167.411L82.4866 169Z" fill="#EFEFEF"/>
<path d="M91.4866 169L96 164.177L100.513 169L102 167.411L96 161L90 167.411L91.4866 169Z" fill="#EFEFEF"/>
<path d="M100.487 169L105 164.177L109.513 169L111 167.411L105 161L99 167.411L100.487 169Z" fill="#EFEFEF"/>
<path d="M109.487 169L114 164.177L118.513 169L120 167.411L114 161L108 167.411L109.487 169Z" fill="#EFEFEF"/>
<path d="M118.487 169L123 164.177L127.513 169L129 167.411L123 161L117 167.411L118.487 169Z" fill="#EFEFEF"/>
<path d="M127.487 169L132 164.177L136.513 169L138 167.411L132 161L126 167.411L127.487 169Z" fill="#EFEFEF"/>
<path d="M136.487 169L141 164.177L145.513 169L147 167.411L141 161L135 167.411L136.487 169Z" fill="#EFEFEF"/>
<path d="M145.487 169L150 164.177L154.513 169L156 167.411L150 161L144 167.411L145.487 169Z" fill="#EFEFEF"/>
<path d="M154.487 169L159 164.177L163.513 169L165 167.411L159 161L153 167.411L154.487 169Z" fill="#EFEFEF"/>
<path d="M163.487 169L168 164.177L172.513 169L174 167.411L168 161L162 167.411L163.487 169Z" fill="#EFEFEF"/>
<path d="M172.487 169L177 164.177L181.513 169L183 167.411L177 161L171 167.411L172.487 169Z" fill="#EFEFEF"/>
<path d="M181.487 169L186 164.177L190.513 169L192 167.411L186 161L180 167.411L181.487 169Z" fill="#EFEFEF"/>
<path d="M190.487 169L195 164.177L199.513 169L201 167.411L195 161L189 167.411L190.487 169Z" fill="#EFEFEF"/>
<path d="M1.4866 169L6 164.177L10.5134 169L12 167.411L6 161L-1.09255e-06 167.411L1.4866 169Z" fill="#EFEFEF"/>
<path d="M10.4866 179L15 174.177L19.5134 179L21 177.411L15 171L9 177.411L10.4866 179Z" fill="#EFEFEF"/>
<path d="M19.4866 179L24 174.177L28.5134 179L30 177.411L24 171L18 177.411L19.4866 179Z" fill="#EFEFEF"/>
<path d="M28.4866 179L33 174.177L37.5134 179L39 177.411L33 171L27 177.411L28.4866 179Z" fill="#EFEFEF"/>
<path d="M37.4866 179L42 174.177L46.5134 179L48 177.411L42 171L36 177.411L37.4866 179Z" fill="#EFEFEF"/>
<path d="M46.4866 179L51 174.177L55.5134 179L57 177.411L51 171L45 177.411L46.4866 179Z" fill="#EFEFEF"/>
<path d="M55.4866 179L60 174.177L64.5134 179L66 177.411L60 171L54 177.411L55.4866 179Z" fill="#EFEFEF"/>
<path d="M64.4866 179L69 174.177L73.5134 179L75 177.411L69 171L63 177.411L64.4866 179Z" fill="#EFEFEF"/>
<path d="M73.4866 179L78 174.177L82.5134 179L84 177.411L78 171L72 177.411L73.4866 179Z" fill="#EFEFEF"/>
<path d="M82.4866 179L87 174.177L91.5134 179L93 177.411L87 171L81 177.411L82.4866 179Z" fill="#EFEFEF"/>
<path d="M91.4866 179L96 174.177L100.513 179L102 177.411L96 171L90 177.411L91.4866 179Z" fill="#EFEFEF"/>
<path d="M100.487 179L105 174.177L109.513 179L111 177.411L105 171L99 177.411L100.487 179Z" fill="#EFEFEF"/>
<path d="M109.487 179L114 174.177L118.513 179L120 177.411L114 171L108 177.411L109.487 179Z" fill="#EFEFEF"/>
<path d="M118.487 179L123 174.177L127.513 179L129 177.411L123 171L117 177.411L118.487 179Z" fill="#EFEFEF"/>
<path d="M127.487 179L132 174.177L136.513 179L138 177.411L132 171L126 177.411L127.487 179Z" fill="#EFEFEF"/>
<path d="M136.487 179L141 174.177L145.513 179L147 177.411L141 171L135 177.411L136.487 179Z" fill="#EFEFEF"/>
<path d="M145.487 179L150 174.177L154.513 179L156 177.411L150 171L144 177.411L145.487 179Z" fill="#EFEFEF"/>
<path d="M154.487 179L159 174.177L163.513 179L165 177.411L159 171L153 177.411L154.487 179Z" fill="#EFEFEF"/>
<path d="M163.487 179L168 174.177L172.513 179L174 177.411L168 171L162 177.411L163.487 179Z" fill="#EFEFEF"/>
<path d="M172.487 179L177 174.177L181.513 179L183 177.411L177 171L171 177.411L172.487 179Z" fill="#EFEFEF"/>
<path d="M181.487 179L186 174.177L190.513 179L192 177.411L186 171L180 177.411L181.487 179Z" fill="#EFEFEF"/>
<path d="M190.487 179L195 174.177L199.513 179L201 177.411L195 171L189 177.411L190.487 179Z" fill="#EFEFEF"/>
<path d="M1.4866 179L6 174.177L10.5134 179L12 177.411L6 171L-1.09255e-06 177.411L1.4866 179Z" fill="#EFEFEF"/>
<path d="M10.4866 189L15 184.177L19.5134 189L21 187.411L15 181L9 187.411L10.4866 189Z" fill="#EFEFEF"/>
<path d="M19.4866 189L24 184.177L28.5134 189L30 187.411L24 181L18 187.411L19.4866 189Z" fill="#EFEFEF"/>
<path d="M28.4866 189L33 184.177L37.5134 189L39 187.411L33 181L27 187.411L28.4866 189Z" fill="#EFEFEF"/>
<path d="M37.4866 189L42 184.177L46.5134 189L48 187.411L42 181L36 187.411L37.4866 189Z" fill="#EFEFEF"/>
<path d="M46.4866 189L51 184.177L55.5134 189L57 187.411L51 181L45 187.411L46.4866 189Z" fill="#EFEFEF"/>
<path d="M55.4866 189L60 184.177L64.5134 189L66 187.411L60 181L54 187.411L55.4866 189Z" fill="#EFEFEF"/>
<path d="M64.4866 189L69 184.177L73.5134 189L75 187.411L69 181L63 187.411L64.4866 189Z" fill="#EFEFEF"/>
<path d="M73.4866 189L78 184.177L82.5134 189L84 187.411L78 181L72 187.411L73.4866 189Z" fill="#EFEFEF"/>
<path d="M82.4866 189L87 184.177L91.5134 189L93 187.411L87 181L81 187.411L82.4866 189Z" fill="#EFEFEF"/>
<path d="M91.4866 189L96 184.177L100.513 189L102 187.411L96 181L90 187.411L91.4866 189Z" fill="#EFEFEF"/>
<path d="M100.487 189L105 184.177L109.513 189L111 187.411L105 181L99 187.411L100.487 189Z" fill="#EFEFEF"/>
<path d="M109.487 189L114 184.177L118.513 189L120 187.411L114 181L108 187.411L109.487 189Z" fill="#EFEFEF"/>
<path d="M118.487 189L123 184.177L127.513 189L129 187.411L123 181L117 187.411L118.487 189Z" fill="#EFEFEF"/>
<path d="M127.487 189L132 184.177L136.513 189L138 187.411L132 181L126 187.411L127.487 189Z" fill="#EFEFEF"/>
<path d="M136.487 189L141 184.177L145.513 189L147 187.411L141 181L135 187.411L136.487 189Z" fill="#EFEFEF"/>
<path d="M145.487 189L150 184.177L154.513 189L156 187.411L150 181L144 187.411L145.487 189Z" fill="#EFEFEF"/>
<path d="M154.487 189L159 184.177L163.513 189L165 187.411L159 181L153 187.411L154.487 189Z" fill="#EFEFEF"/>
<path d="M163.487 189L168 184.177L172.513 189L174 187.411L168 181L162 187.411L163.487 189Z" fill="#EFEFEF"/>
<path d="M172.487 189L177 184.177L181.513 189L183 187.411L177 181L171 187.411L172.487 189Z" fill="#EFEFEF"/>
<path d="M181.487 189L186 184.177L190.513 189L192 187.411L186 181L180 187.411L181.487 189Z" fill="#EFEFEF"/>
<path d="M190.487 189L195 184.177L199.513 189L201 187.411L195 181L189 187.411L190.487 189Z" fill="#EFEFEF"/>
<path d="M1.4866 189L6 184.177L10.5134 189L12 187.411L6 181L-1.09255e-06 187.411L1.4866 189Z" fill="#EFEFEF"/>
<path d="M10.4866 199L15 194.177L19.5134 199L21 197.411L15 191L9 197.411L10.4866 199Z" fill="#EFEFEF"/>
<path d="M19.4866 199L24 194.177L28.5134 199L30 197.411L24 191L18 197.411L19.4866 199Z" fill="#EFEFEF"/>
<path d="M28.4866 199L33 194.177L37.5134 199L39 197.411L33 191L27 197.411L28.4866 199Z" fill="#EFEFEF"/>
<path d="M37.4866 199L42 194.177L46.5134 199L48 197.411L42 191L36 197.411L37.4866 199Z" fill="#EFEFEF"/>
<path d="M46.4866 199L51 194.177L55.5134 199L57 197.411L51 191L45 197.411L46.4866 199Z" fill="#EFEFEF"/>
<path d="M55.4866 199L60 194.177L64.5134 199L66 197.411L60 191L54 197.411L55.4866 199Z" fill="#EFEFEF"/>
<path d="M64.4866 199L69 194.177L73.5134 199L75 197.411L69 191L63 197.411L64.4866 199Z" fill="#EFEFEF"/>
<path d="M73.4866 199L78 194.177L82.5134 199L84 197.411L78 191L72 197.411L73.4866 199Z" fill="#EFEFEF"/>
<path d="M82.4866 199L87 194.177L91.5134 199L93 197.411L87 191L81 197.411L82.4866 199Z" fill="#EFEFEF"/>
<path d="M91.4866 199L96 194.177L100.513 199L102 197.411L96 191L90 197.411L91.4866 199Z" fill="#EFEFEF"/>
<path d="M100.487 199L105 194.177L109.513 199L111 197.411L105 191L99 197.411L100.487 199Z" fill="#EFEFEF"/>
<path d="M109.487 199L114 194.177L118.513 199L120 197.411L114 191L108 197.411L109.487 199Z" fill="#EFEFEF"/>
<path d="M118.487 199L123 194.177L127.513 199L129 197.411L123 191L117 197.411L118.487 199Z" fill="#EFEFEF"/>
<path d="M127.487 199L132 194.177L136.513 199L138 197.411L132 191L126 197.411L127.487 199Z" fill="#EFEFEF"/>
<path d="M136.487 199L141 194.177L145.513 199L147 197.411L141 191L135 197.411L136.487 199Z" fill="#EFEFEF"/>
<path d="M145.487 199L150 194.177L154.513 199L156 197.411L150 191L144 197.411L145.487 199Z" fill="#EFEFEF"/>
<path d="M154.487 199L159 194.177L163.513 199L165 197.411L159 191L153 197.411L154.487 199Z" fill="#EFEFEF"/>
<path d="M163.487 199L168 194.177L172.513 199L174 197.411L168 191L162 197.411L163.487 199Z" fill="#EFEFEF"/>
<path d="M172.487 199L177 194.177L181.513 199L183 197.411L177 191L171 197.411L172.487 199Z" fill="#EFEFEF"/>
<path d="M181.487 199L186 194.177L190.513 199L192 197.411L186 191L180 197.411L181.487 199Z" fill="#EFEFEF"/>
<path d="M190.487 199L195 194.177L199.513 199L201 197.411L195 191L189 197.411L190.487 199Z" fill="#EFEFEF"/>
<path d="M1.4866 199L6 194.177L10.5134 199L12 197.411L6 191L-1.09255e-06 197.411L1.4866 199Z" fill="#EFEFEF"/>
<path d="M10.4866 209L15 204.177L19.5134 209L21 207.411L15 201L9 207.411L10.4866 209Z" fill="#EFEFEF"/>
<path d="M19.4866 209L24 204.177L28.5134 209L30 207.411L24 201L18 207.411L19.4866 209Z" fill="#EFEFEF"/>
<path d="M28.4866 209L33 204.177L37.5134 209L39 207.411L33 201L27 207.411L28.4866 209Z" fill="#EFEFEF"/>
<path d="M37.4866 209L42 204.177L46.5134 209L48 207.411L42 201L36 207.411L37.4866 209Z" fill="#EFEFEF"/>
<path d="M46.4866 209L51 204.177L55.5134 209L57 207.411L51 201L45 207.411L46.4866 209Z" fill="#EFEFEF"/>
<path d="M55.4866 209L60 204.177L64.5134 209L66 207.411L60 201L54 207.411L55.4866 209Z" fill="#EFEFEF"/>
<path d="M64.4866 209L69 204.177L73.5134 209L75 207.411L69 201L63 207.411L64.4866 209Z" fill="#EFEFEF"/>
<path d="M73.4866 209L78 204.177L82.5134 209L84 207.411L78 201L72 207.411L73.4866 209Z" fill="#EFEFEF"/>
<path d="M82.4866 209L87 204.177L91.5134 209L93 207.411L87 201L81 207.411L82.4866 209Z" fill="#EFEFEF"/>
<path d="M91.4866 209L96 204.177L100.513 209L102 207.411L96 201L90 207.411L91.4866 209Z" fill="#EFEFEF"/>
<path d="M100.487 209L105 204.177L109.513 209L111 207.411L105 201L99 207.411L100.487 209Z" fill="#EFEFEF"/>
<path d="M109.487 209L114 204.177L118.513 209L120 207.411L114 201L108 207.411L109.487 209Z" fill="#EFEFEF"/>
<path d="M118.487 209L123 204.177L127.513 209L129 207.411L123 201L117 207.411L118.487 209Z" fill="#EFEFEF"/>
<path d="M127.487 209L132 204.177L136.513 209L138 207.411L132 201L126 207.411L127.487 209Z" fill="#EFEFEF"/>
<path d="M136.487 209L141 204.177L145.513 209L147 207.411L141 201L135 207.411L136.487 209Z" fill="#EFEFEF"/>
<path d="M145.487 209L150 204.177L154.513 209L156 207.411L150 201L144 207.411L145.487 209Z" fill="#EFEFEF"/>
<path d="M154.487 209L159 204.177L163.513 209L165 207.411L159 201L153 207.411L154.487 209Z" fill="#EFEFEF"/>
<path d="M163.487 209L168 204.177L172.513 209L174 207.411L168 201L162 207.411L163.487 209Z" fill="#EFEFEF"/>
<path d="M172.487 209L177 204.177L181.513 209L183 207.411L177 201L171 207.411L172.487 209Z" fill="#EFEFEF"/>
<path d="M181.487 209L186 204.177L190.513 209L192 207.411L186 201L180 207.411L181.487 209Z" fill="#EFEFEF"/>
<path d="M190.487 209L195 204.177L199.513 209L201 207.411L195 201L189 207.411L190.487 209Z" fill="#EFEFEF"/>
<path d="M1.4866 209L6 204.177L10.5134 209L12 207.411L6 201L-1.09255e-06 207.411L1.4866 209Z" fill="#EFEFEF"/>
<path d="M10.4866 219L15 214.177L19.5134 219L21 217.411L15 211L9 217.411L10.4866 219Z" fill="#EFEFEF"/>
<path d="M19.4866 219L24 214.177L28.5134 219L30 217.411L24 211L18 217.411L19.4866 219Z" fill="#EFEFEF"/>
<path d="M28.4866 219L33 214.177L37.5134 219L39 217.411L33 211L27 217.411L28.4866 219Z" fill="#EFEFEF"/>
<path d="M37.4866 219L42 214.177L46.5134 219L48 217.411L42 211L36 217.411L37.4866 219Z" fill="#EFEFEF"/>
<path d="M46.4866 219L51 214.177L55.5134 219L57 217.411L51 211L45 217.411L46.4866 219Z" fill="#EFEFEF"/>
<path d="M55.4866 219L60 214.177L64.5134 219L66 217.411L60 211L54 217.411L55.4866 219Z" fill="#EFEFEF"/>
<path d="M64.4866 219L69 214.177L73.5134 219L75 217.411L69 211L63 217.411L64.4866 219Z" fill="#EFEFEF"/>
<path d="M73.4866 219L78 214.177L82.5134 219L84 217.411L78 211L72 217.411L73.4866 219Z" fill="#EFEFEF"/>
<path d="M82.4866 219L87 214.177L91.5134 219L93 217.411L87 211L81 217.411L82.4866 219Z" fill="#EFEFEF"/>
<path d="M91.4866 219L96 214.177L100.513 219L102 217.411L96 211L90 217.411L91.4866 219Z" fill="#EFEFEF"/>
<path d="M100.487 219L105 214.177L109.513 219L111 217.411L105 211L99 217.411L100.487 219Z" fill="#EFEFEF"/>
<path d="M109.487 219L114 214.177L118.513 219L120 217.411L114 211L108 217.411L109.487 219Z" fill="#EFEFEF"/>
<path d="M118.487 219L123 214.177L127.513 219L129 217.411L123 211L117 217.411L118.487 219Z" fill="#EFEFEF"/>
<path d="M127.487 219L132 214.177L136.513 219L138 217.411L132 211L126 217.411L127.487 219Z" fill="#EFEFEF"/>
<path d="M136.487 219L141 214.177L145.513 219L147 217.411L141 211L135 217.411L136.487 219Z" fill="#EFEFEF"/>
<path d="M145.487 219L150 214.177L154.513 219L156 217.411L150 211L144 217.411L145.487 219Z" fill="#EFEFEF"/>
<path d="M154.487 219L159 214.177L163.513 219L165 217.411L159 211L153 217.411L154.487 219Z" fill="#EFEFEF"/>
<path d="M163.487 219L168 214.177L172.513 219L174 217.411L168 211L162 217.411L163.487 219Z" fill="#EFEFEF"/>
<path d="M172.487 219L177 214.177L181.513 219L183 217.411L177 211L171 217.411L172.487 219Z" fill="#EFEFEF"/>
<path d="M181.487 219L186 214.177L190.513 219L192 217.411L186 211L180 217.411L181.487 219Z" fill="#EFEFEF"/>
<path d="M190.487 219L195 214.177L199.513 219L201 217.411L195 211L189 217.411L190.487 219Z" fill="#EFEFEF"/>
<path d="M1.4866 219L6 214.177L10.5134 219L12 217.411L6 211L-1.09255e-06 217.411L1.4866 219Z" fill="#EFEFEF"/>
<path d="M10.4866 229L15 224.177L19.5134 229L21 227.411L15 221L9 227.411L10.4866 229Z" fill="#EFEFEF"/>
<path d="M19.4866 229L24 224.177L28.5134 229L30 227.411L24 221L18 227.411L19.4866 229Z" fill="#EFEFEF"/>
<path d="M28.4866 229L33 224.177L37.5134 229L39 227.411L33 221L27 227.411L28.4866 229Z" fill="#EFEFEF"/>
<path d="M37.4866 229L42 224.177L46.5134 229L48 227.411L42 221L36 227.411L37.4866 229Z" fill="#EFEFEF"/>
<path d="M46.4866 229L51 224.177L55.5134 229L57 227.411L51 221L45 227.411L46.4866 229Z" fill="#EFEFEF"/>
<path d="M55.4866 229L60 224.177L64.5134 229L66 227.411L60 221L54 227.411L55.4866 229Z" fill="#EFEFEF"/>
<path d="M64.4866 229L69 224.177L73.5134 229L75 227.411L69 221L63 227.411L64.4866 229Z" fill="#EFEFEF"/>
<path d="M73.4866 229L78 224.177L82.5134 229L84 227.411L78 221L72 227.411L73.4866 229Z" fill="#EFEFEF"/>
<path d="M82.4866 229L87 224.177L91.5134 229L93 227.411L87 221L81 227.411L82.4866 229Z" fill="#EFEFEF"/>
<path d="M91.4866 229L96 224.177L100.513 229L102 227.411L96 221L90 227.411L91.4866 229Z" fill="#EFEFEF"/>
<path d="M100.487 229L105 224.177L109.513 229L111 227.411L105 221L99 227.411L100.487 229Z" fill="#EFEFEF"/>
<path d="M109.487 229L114 224.177L118.513 229L120 227.411L114 221L108 227.411L109.487 229Z" fill="#EFEFEF"/>
<path d="M118.487 229L123 224.177L127.513 229L129 227.411L123 221L117 227.411L118.487 229Z" fill="#EFEFEF"/>
<path d="M127.487 229L132 224.177L136.513 229L138 227.411L132 221L126 227.411L127.487 229Z" fill="#EFEFEF"/>
<path d="M136.487 229L141 224.177L145.513 229L147 227.411L141 221L135 227.411L136.487 229Z" fill="#EFEFEF"/>
<path d="M145.487 229L150 224.177L154.513 229L156 227.411L150 221L144 227.411L145.487 229Z" fill="#EFEFEF"/>
<path d="M154.487 229L159 224.177L163.513 229L165 227.411L159 221L153 227.411L154.487 229Z" fill="#EFEFEF"/>
<path d="M163.487 229L168 224.177L172.513 229L174 227.411L168 221L162 227.411L163.487 229Z" fill="#EFEFEF"/>
<path d="M172.487 229L177 224.177L181.513 229L183 227.411L177 221L171 227.411L172.487 229Z" fill="#EFEFEF"/>
<path d="M181.487 229L186 224.177L190.513 229L192 227.411L186 221L180 227.411L181.487 229Z" fill="#EFEFEF"/>
<path d="M190.487 229L195 224.177L199.513 229L201 227.411L195 221L189 227.411L190.487 229Z" fill="#EFEFEF"/>
<path d="M1.4866 229L6 224.177L10.5134 229L12 227.411L6 221L-1.09255e-06 227.411L1.4866 229Z" fill="#EFEFEF"/>
<path d="M10.4866 239L15 234.177L19.5134 239L21 237.411L15 231L9 237.411L10.4866 239Z" fill="#EFEFEF"/>
<path d="M19.4866 239L24 234.177L28.5134 239L30 237.411L24 231L18 237.411L19.4866 239Z" fill="#EFEFEF"/>
<path d="M28.4866 239L33 234.177L37.5134 239L39 237.411L33 231L27 237.411L28.4866 239Z" fill="#EFEFEF"/>
<path d="M37.4866 239L42 234.177L46.5134 239L48 237.411L42 231L36 237.411L37.4866 239Z" fill="#EFEFEF"/>
<path d="M46.4866 239L51 234.177L55.5134 239L57 237.411L51 231L45 237.411L46.4866 239Z" fill="#EFEFEF"/>
<path d="M55.4866 239L60 234.177L64.5134 239L66 237.411L60 231L54 237.411L55.4866 239Z" fill="#EFEFEF"/>
<path d="M64.4866 239L69 234.177L73.5134 239L75 237.411L69 231L63 237.411L64.4866 239Z" fill="#EFEFEF"/>
<path d="M73.4866 239L78 234.177L82.5134 239L84 237.411L78 231L72 237.411L73.4866 239Z" fill="#EFEFEF"/>
<path d="M82.4866 239L87 234.177L91.5134 239L93 237.411L87 231L81 237.411L82.4866 239Z" fill="#EFEFEF"/>
<path d="M91.4866 239L96 234.177L100.513 239L102 237.411L96 231L90 237.411L91.4866 239Z" fill="#EFEFEF"/>
<path d="M100.487 239L105 234.177L109.513 239L111 237.411L105 231L99 237.411L100.487 239Z" fill="#EFEFEF"/>
<path d="M109.487 239L114 234.177L118.513 239L120 237.411L114 231L108 237.411L109.487 239Z" fill="#EFEFEF"/>
<path d="M118.487 239L123 234.177L127.513 239L129 237.411L123 231L117 237.411L118.487 239Z" fill="#EFEFEF"/>
<path d="M127.487 239L132 234.177L136.513 239L138 237.411L132 231L126 237.411L127.487 239Z" fill="#EFEFEF"/>
<path d="M136.487 239L141 234.177L145.513 239L147 237.411L141 231L135 237.411L136.487 239Z" fill="#EFEFEF"/>
<path d="M145.487 239L150 234.177L154.513 239L156 237.411L150 231L144 237.411L145.487 239Z" fill="#EFEFEF"/>
<path d="M154.487 239L159 234.177L163.513 239L165 237.411L159 231L153 237.411L154.487 239Z" fill="#EFEFEF"/>
<path d="M163.487 239L168 234.177L172.513 239L174 237.411L168 231L162 237.411L163.487 239Z" fill="#EFEFEF"/>
<path d="M172.487 239L177 234.177L181.513 239L183 237.411L177 231L171 237.411L172.487 239Z" fill="#EFEFEF"/>
<path d="M181.487 239L186 234.177L190.513 239L192 237.411L186 231L180 237.411L181.487 239Z" fill="#EFEFEF"/>
<path d="M190.487 239L195 234.177L199.513 239L201 237.411L195 231L189 237.411L190.487 239Z" fill="#EFEFEF"/>
<path d="M1.4866 239L6 234.177L10.5134 239L12 237.411L6 231L-1.09255e-06 237.411L1.4866 239Z" fill="#EFEFEF"/>
<path d="M10.4866 249L15 244.177L19.5134 249L21 247.411L15 241L9 247.411L10.4866 249Z" fill="#EFEFEF"/>
<path d="M19.4866 249L24 244.177L28.5134 249L30 247.411L24 241L18 247.411L19.4866 249Z" fill="#EFEFEF"/>
<path d="M28.4866 249L33 244.177L37.5134 249L39 247.411L33 241L27 247.411L28.4866 249Z" fill="#EFEFEF"/>
<path d="M37.4866 249L42 244.177L46.5134 249L48 247.411L42 241L36 247.411L37.4866 249Z" fill="#EFEFEF"/>
<path d="M46.4866 249L51 244.177L55.5134 249L57 247.411L51 241L45 247.411L46.4866 249Z" fill="#EFEFEF"/>
<path d="M55.4866 249L60 244.177L64.5134 249L66 247.411L60 241L54 247.411L55.4866 249Z" fill="#EFEFEF"/>
<path d="M64.4866 249L69 244.177L73.5134 249L75 247.411L69 241L63 247.411L64.4866 249Z" fill="#EFEFEF"/>
<path d="M73.4866 249L78 244.177L82.5134 249L84 247.411L78 241L72 247.411L73.4866 249Z" fill="#EFEFEF"/>
<path d="M82.4866 249L87 244.177L91.5134 249L93 247.411L87 241L81 247.411L82.4866 249Z" fill="#EFEFEF"/>
<path d="M91.4866 249L96 244.177L100.513 249L102 247.411L96 241L90 247.411L91.4866 249Z" fill="#EFEFEF"/>
<path d="M100.487 249L105 244.177L109.513 249L111 247.411L105 241L99 247.411L100.487 249Z" fill="#EFEFEF"/>
<path d="M109.487 249L114 244.177L118.513 249L120 247.411L114 241L108 247.411L109.487 249Z" fill="#EFEFEF"/>
<path d="M118.487 249L123 244.177L127.513 249L129 247.411L123 241L117 247.411L118.487 249Z" fill="#EFEFEF"/>
<path d="M127.487 249L132 244.177L136.513 249L138 247.411L132 241L126 247.411L127.487 249Z" fill="#EFEFEF"/>
<path d="M136.487 249L141 244.177L145.513 249L147 247.411L141 241L135 247.411L136.487 249Z" fill="#EFEFEF"/>
<path d="M145.487 249L150 244.177L154.513 249L156 247.411L150 241L144 247.411L145.487 249Z" fill="#EFEFEF"/>
<path d="M154.487 249L159 244.177L163.513 249L165 247.411L159 241L153 247.411L154.487 249Z" fill="#EFEFEF"/>
<path d="M163.487 249L168 244.177L172.513 249L174 247.411L168 241L162 247.411L163.487 249Z" fill="#EFEFEF"/>
<path d="M172.487 249L177 244.177L181.513 249L183 247.411L177 241L171 247.411L172.487 249Z" fill="#EFEFEF"/>
<path d="M181.487 249L186 244.177L190.513 249L192 247.411L186 241L180 247.411L181.487 249Z" fill="#EFEFEF"/>
<path d="M190.487 249L195 244.177L199.513 249L201 247.411L195 241L189 247.411L190.487 249Z" fill="#EFEFEF"/>
<path d="M1.4866 249L6 244.177L10.5134 249L12 247.411L6 241L-1.09255e-06 247.411L1.4866 249Z" fill="#EFEFEF"/>
<path d="M10.4866 259L15 254.177L19.5134 259L21 257.411L15 251L9 257.411L10.4866 259Z" fill="#EFEFEF"/>
<path d="M19.4866 259L24 254.177L28.5134 259L30 257.411L24 251L18 257.411L19.4866 259Z" fill="#EFEFEF"/>
<path d="M28.4866 259L33 254.177L37.5134 259L39 257.411L33 251L27 257.411L28.4866 259Z" fill="#EFEFEF"/>
<path d="M37.4866 259L42 254.177L46.5134 259L48 257.411L42 251L36 257.411L37.4866 259Z" fill="#EFEFEF"/>
<path d="M46.4866 259L51 254.177L55.5134 259L57 257.411L51 251L45 257.411L46.4866 259Z" fill="#EFEFEF"/>
<path d="M55.4866 259L60 254.177L64.5134 259L66 257.411L60 251L54 257.411L55.4866 259Z" fill="#EFEFEF"/>
<path d="M64.4866 259L69 254.177L73.5134 259L75 257.411L69 251L63 257.411L64.4866 259Z" fill="#EFEFEF"/>
<path d="M73.4866 259L78 254.177L82.5134 259L84 257.411L78 251L72 257.411L73.4866 259Z" fill="#EFEFEF"/>
<path d="M82.4866 259L87 254.177L91.5134 259L93 257.411L87 251L81 257.411L82.4866 259Z" fill="#EFEFEF"/>
<path d="M91.4866 259L96 254.177L100.513 259L102 257.411L96 251L90 257.411L91.4866 259Z" fill="#EFEFEF"/>
<path d="M100.487 259L105 254.177L109.513 259L111 257.411L105 251L99 257.411L100.487 259Z" fill="#EFEFEF"/>
<path d="M109.487 259L114 254.177L118.513 259L120 257.411L114 251L108 257.411L109.487 259Z" fill="#EFEFEF"/>
<path d="M118.487 259L123 254.177L127.513 259L129 257.411L123 251L117 257.411L118.487 259Z" fill="#EFEFEF"/>
<path d="M127.487 259L132 254.177L136.513 259L138 257.411L132 251L126 257.411L127.487 259Z" fill="#EFEFEF"/>
<path d="M136.487 259L141 254.177L145.513 259L147 257.411L141 251L135 257.411L136.487 259Z" fill="#EFEFEF"/>
<path d="M145.487 259L150 254.177L154.513 259L156 257.411L150 251L144 257.411L145.487 259Z" fill="#EFEFEF"/>
<path d="M154.487 259L159 254.177L163.513 259L165 257.411L159 251L153 257.411L154.487 259Z" fill="#EFEFEF"/>
<path d="M163.487 259L168 254.177L172.513 259L174 257.411L168 251L162 257.411L163.487 259Z" fill="#EFEFEF"/>
<path d="M172.487 259L177 254.177L181.513 259L183 257.411L177 251L171 257.411L172.487 259Z" fill="#EFEFEF"/>
<path d="M181.487 259L186 254.177L190.513 259L192 257.411L186 251L180 257.411L181.487 259Z" fill="#EFEFEF"/>
<path d="M190.487 259L195 254.177L199.513 259L201 257.411L195 251L189 257.411L190.487 259Z" fill="#EFEFEF"/>
<path d="M1.4866 259L6 254.177L10.5134 259L12 257.411L6 251L-1.09255e-06 257.411L1.4866 259Z" fill="#EFEFEF"/>
<path d="M10.4866 269L15 264.177L19.5134 269L21 267.411L15 261L9 267.411L10.4866 269Z" fill="#EFEFEF"/>
<path d="M19.4866 269L24 264.177L28.5134 269L30 267.411L24 261L18 267.411L19.4866 269Z" fill="#EFEFEF"/>
<path d="M28.4866 269L33 264.177L37.5134 269L39 267.411L33 261L27 267.411L28.4866 269Z" fill="#EFEFEF"/>
<path d="M37.4866 269L42 264.177L46.5134 269L48 267.411L42 261L36 267.411L37.4866 269Z" fill="#EFEFEF"/>
<path d="M46.4866 269L51 264.177L55.5134 269L57 267.411L51 261L45 267.411L46.4866 269Z" fill="#EFEFEF"/>
<path d="M55.4866 269L60 264.177L64.5134 269L66 267.411L60 261L54 267.411L55.4866 269Z" fill="#EFEFEF"/>
<path d="M64.4866 269L69 264.177L73.5134 269L75 267.411L69 261L63 267.411L64.4866 269Z" fill="#EFEFEF"/>
<path d="M73.4866 269L78 264.177L82.5134 269L84 267.411L78 261L72 267.411L73.4866 269Z" fill="#EFEFEF"/>
<path d="M82.4866 269L87 264.177L91.5134 269L93 267.411L87 261L81 267.411L82.4866 269Z" fill="#EFEFEF"/>
<path d="M91.4866 269L96 264.177L100.513 269L102 267.411L96 261L90 267.411L91.4866 269Z" fill="#EFEFEF"/>
<path d="M100.487 269L105 264.177L109.513 269L111 267.411L105 261L99 267.411L100.487 269Z" fill="#EFEFEF"/>
<path d="M109.487 269L114 264.177L118.513 269L120 267.411L114 261L108 267.411L109.487 269Z" fill="#EFEFEF"/>
<path d="M118.487 269L123 264.177L127.513 269L129 267.411L123 261L117 267.411L118.487 269Z" fill="#EFEFEF"/>
<path d="M127.487 269L132 264.177L136.513 269L138 267.411L132 261L126 267.411L127.487 269Z" fill="#EFEFEF"/>
<path d="M136.487 269L141 264.177L145.513 269L147 267.411L141 261L135 267.411L136.487 269Z" fill="#EFEFEF"/>
<path d="M145.487 269L150 264.177L154.513 269L156 267.411L150 261L144 267.411L145.487 269Z" fill="#EFEFEF"/>
<path d="M154.487 269L159 264.177L163.513 269L165 267.411L159 261L153 267.411L154.487 269Z" fill="#EFEFEF"/>
<path d="M163.487 269L168 264.177L172.513 269L174 267.411L168 261L162 267.411L163.487 269Z" fill="#EFEFEF"/>
<path d="M172.487 269L177 264.177L181.513 269L183 267.411L177 261L171 267.411L172.487 269Z" fill="#EFEFEF"/>
<path d="M181.487 269L186 264.177L190.513 269L192 267.411L186 261L180 267.411L181.487 269Z" fill="#EFEFEF"/>
<path d="M190.487 269L195 264.177L199.513 269L201 267.411L195 261L189 267.411L190.487 269Z" fill="#EFEFEF"/>
<path d="M1.4866 269L6 264.177L10.5134 269L12 267.411L6 261L-1.09255e-06 267.411L1.4866 269Z" fill="#EFEFEF"/>
<path d="M10.4866 279L15 274.177L19.5134 279L21 277.411L15 271L9 277.411L10.4866 279Z" fill="#EFEFEF"/>
<path d="M19.4866 279L24 274.177L28.5134 279L30 277.411L24 271L18 277.411L19.4866 279Z" fill="#EFEFEF"/>
<path d="M28.4866 279L33 274.177L37.5134 279L39 277.411L33 271L27 277.411L28.4866 279Z" fill="#EFEFEF"/>
<path d="M37.4866 279L42 274.177L46.5134 279L48 277.411L42 271L36 277.411L37.4866 279Z" fill="#EFEFEF"/>
<path d="M46.4866 279L51 274.177L55.5134 279L57 277.411L51 271L45 277.411L46.4866 279Z" fill="#EFEFEF"/>
<path d="M55.4866 279L60 274.177L64.5134 279L66 277.411L60 271L54 277.411L55.4866 279Z" fill="#EFEFEF"/>
<path d="M64.4866 279L69 274.177L73.5134 279L75 277.411L69 271L63 277.411L64.4866 279Z" fill="#EFEFEF"/>
<path d="M73.4866 279L78 274.177L82.5134 279L84 277.411L78 271L72 277.411L73.4866 279Z" fill="#EFEFEF"/>
<path d="M82.4866 279L87 274.177L91.5134 279L93 277.411L87 271L81 277.411L82.4866 279Z" fill="#EFEFEF"/>
<path d="M91.4866 279L96 274.177L100.513 279L102 277.411L96 271L90 277.411L91.4866 279Z" fill="#EFEFEF"/>
<path d="M100.487 279L105 274.177L109.513 279L111 277.411L105 271L99 277.411L100.487 279Z" fill="#EFEFEF"/>
<path d="M109.487 279L114 274.177L118.513 279L120 277.411L114 271L108 277.411L109.487 279Z" fill="#EFEFEF"/>
<path d="M118.487 279L123 274.177L127.513 279L129 277.411L123 271L117 277.411L118.487 279Z" fill="#EFEFEF"/>
<path d="M127.487 279L132 274.177L136.513 279L138 277.411L132 271L126 277.411L127.487 279Z" fill="#EFEFEF"/>
<path d="M136.487 279L141 274.177L145.513 279L147 277.411L141 271L135 277.411L136.487 279Z" fill="#EFEFEF"/>
<path d="M145.487 279L150 274.177L154.513 279L156 277.411L150 271L144 277.411L145.487 279Z" fill="#EFEFEF"/>
<path d="M154.487 279L159 274.177L163.513 279L165 277.411L159 271L153 277.411L154.487 279Z" fill="#EFEFEF"/>
<path d="M163.487 279L168 274.177L172.513 279L174 277.411L168 271L162 277.411L163.487 279Z" fill="#EFEFEF"/>
<path d="M172.487 279L177 274.177L181.513 279L183 277.411L177 271L171 277.411L172.487 279Z" fill="#EFEFEF"/>
<path d="M181.487 279L186 274.177L190.513 279L192 277.411L186 271L180 277.411L181.487 279Z" fill="#EFEFEF"/>
<path d="M190.487 279L195 274.177L199.513 279L201 277.411L195 271L189 277.411L190.487 279Z" fill="#EFEFEF"/>
<path d="M1.4866 279L6 274.177L10.5134 279L12 277.411L6 271L-1.09255e-06 277.411L1.4866 279Z" fill="#EFEFEF"/>
<path d="M10.4866 289L15 284.177L19.5134 289L21 287.411L15 281L9 287.411L10.4866 289Z" fill="#EFEFEF"/>
<path d="M19.4866 289L24 284.177L28.5134 289L30 287.411L24 281L18 287.411L19.4866 289Z" fill="#EFEFEF"/>
<path d="M28.4866 289L33 284.177L37.5134 289L39 287.411L33 281L27 287.411L28.4866 289Z" fill="#EFEFEF"/>
<path d="M37.4866 289L42 284.177L46.5134 289L48 287.411L42 281L36 287.411L37.4866 289Z" fill="#EFEFEF"/>
<path d="M46.4866 289L51 284.177L55.5134 289L57 287.411L51 281L45 287.411L46.4866 289Z" fill="#EFEFEF"/>
<path d="M55.4866 289L60 284.177L64.5134 289L66 287.411L60 281L54 287.411L55.4866 289Z" fill="#EFEFEF"/>
<path d="M64.4866 289L69 284.177L73.5134 289L75 287.411L69 281L63 287.411L64.4866 289Z" fill="#EFEFEF"/>
<path d="M73.4866 289L78 284.177L82.5134 289L84 287.411L78 281L72 287.411L73.4866 289Z" fill="#EFEFEF"/>
<path d="M82.4866 289L87 284.177L91.5134 289L93 287.411L87 281L81 287.411L82.4866 289Z" fill="#EFEFEF"/>
<path d="M91.4866 289L96 284.177L100.513 289L102 287.411L96 281L90 287.411L91.4866 289Z" fill="#EFEFEF"/>
<path d="M100.487 289L105 284.177L109.513 289L111 287.411L105 281L99 287.411L100.487 289Z" fill="#EFEFEF"/>
<path d="M109.487 289L114 284.177L118.513 289L120 287.411L114 281L108 287.411L109.487 289Z" fill="#EFEFEF"/>
<path d="M118.487 289L123 284.177L127.513 289L129 287.411L123 281L117 287.411L118.487 289Z" fill="#EFEFEF"/>
<path d="M127.487 289L132 284.177L136.513 289L138 287.411L132 281L126 287.411L127.487 289Z" fill="#EFEFEF"/>
<path d="M136.487 289L141 284.177L145.513 289L147 287.411L141 281L135 287.411L136.487 289Z" fill="#EFEFEF"/>
<path d="M145.487 289L150 284.177L154.513 289L156 287.411L150 281L144 287.411L145.487 289Z" fill="#EFEFEF"/>
<path d="M154.487 289L159 284.177L163.513 289L165 287.411L159 281L153 287.411L154.487 289Z" fill="#EFEFEF"/>
<path d="M163.487 289L168 284.177L172.513 289L174 287.411L168 281L162 287.411L163.487 289Z" fill="#EFEFEF"/>
<path d="M172.487 289L177 284.177L181.513 289L183 287.411L177 281L171 287.411L172.487 289Z" fill="#EFEFEF"/>
<path d="M181.487 289L186 284.177L190.513 289L192 287.411L186 281L180 287.411L181.487 289Z" fill="#EFEFEF"/>
<path d="M190.487 289L195 284.177L199.513 289L201 287.411L195 281L189 287.411L190.487 289Z" fill="#EFEFEF"/>
<path d="M1.4866 289L6 284.177L10.5134 289L12 287.411L6 281L-1.09255e-06 287.411L1.4866 289Z" fill="#EFEFEF"/>
<path d="M10.4866 299L15 294.177L19.5134 299L21 297.411L15 291L9 297.411L10.4866 299Z" fill="#EFEFEF"/>
<path d="M19.4866 299L24 294.177L28.5134 299L30 297.411L24 291L18 297.411L19.4866 299Z" fill="#EFEFEF"/>
<path d="M28.4866 299L33 294.177L37.5134 299L39 297.411L33 291L27 297.411L28.4866 299Z" fill="#EFEFEF"/>
<path d="M37.4866 299L42 294.177L46.5134 299L48 297.411L42 291L36 297.411L37.4866 299Z" fill="#EFEFEF"/>
<path d="M46.4866 299L51 294.177L55.5134 299L57 297.411L51 291L45 297.411L46.4866 299Z" fill="#EFEFEF"/>
<path d="M55.4866 299L60 294.177L64.5134 299L66 297.411L60 291L54 297.411L55.4866 299Z" fill="#EFEFEF"/>
<path d="M64.4866 299L69 294.177L73.5134 299L75 297.411L69 291L63 297.411L64.4866 299Z" fill="#EFEFEF"/>
<path d="M73.4866 299L78 294.177L82.5134 299L84 297.411L78 291L72 297.411L73.4866 299Z" fill="#EFEFEF"/>
<path d="M82.4866 299L87 294.177L91.5134 299L93 297.411L87 291L81 297.411L82.4866 299Z" fill="#EFEFEF"/>
<path d="M91.4866 299L96 294.177L100.513 299L102 297.411L96 291L90 297.411L91.4866 299Z" fill="#EFEFEF"/>
<path d="M100.487 299L105 294.177L109.513 299L111 297.411L105 291L99 297.411L100.487 299Z" fill="#EFEFEF"/>
<path d="M109.487 299L114 294.177L118.513 299L120 297.411L114 291L108 297.411L109.487 299Z" fill="#EFEFEF"/>
<path d="M118.487 299L123 294.177L127.513 299L129 297.411L123 291L117 297.411L118.487 299Z" fill="#EFEFEF"/>
<path d="M127.487 299L132 294.177L136.513 299L138 297.411L132 291L126 297.411L127.487 299Z" fill="#EFEFEF"/>
<path d="M136.487 299L141 294.177L145.513 299L147 297.411L141 291L135 297.411L136.487 299Z" fill="#EFEFEF"/>
<path d="M145.487 299L150 294.177L154.513 299L156 297.411L150 291L144 297.411L145.487 299Z" fill="#EFEFEF"/>
<path d="M154.487 299L159 294.177L163.513 299L165 297.411L159 291L153 297.411L154.487 299Z" fill="#EFEFEF"/>
<path d="M163.487 299L168 294.177L172.513 299L174 297.411L168 291L162 297.411L163.487 299Z" fill="#EFEFEF"/>
<path d="M172.487 299L177 294.177L181.513 299L183 297.411L177 291L171 297.411L172.487 299Z" fill="#EFEFEF"/>
<path d="M181.487 299L186 294.177L190.513 299L192 297.411L186 291L180 297.411L181.487 299Z" fill="#EFEFEF"/>
<path d="M190.487 299L195 294.177L199.513 299L201 297.411L195 291L189 297.411L190.487 299Z" fill="#EFEFEF"/>
<path d="M1.4866 299L6 294.177L10.5134 299L12 297.411L6 291L-1.09255e-06 297.411L1.4866 299Z" fill="#EFEFEF"/>
</g>
<defs>
<clipPath id="clip0_5_3">
<rect width="200" height="300" fill="white"/>
</clipPath>
</defs>
</svg>
